<?xml version="1.0" standalone="no"?>
<!DOCTYPE svg PUBLIC "-//W3C//DTD SVG 1.1//EN" "http://www.w3.org/Graphics/SVG/1.1/DTD/svg11.dtd" >
<svg xmlns="http://www.w3.org/2000/svg" xmlns:xlink="http://www.w3.org/1999/xlink" version="1.1">
<metadata>
Created by FontForge 20170910 at Fri Jan  1 01:00:00 1904
 By Jimmy Wärting
Copyright (c) 1990, 1991 Adobe Systems Incorporated.  All Rights Reserved.Helvetica is a trademark of Linotype AG and/or its subsidiaries.
</metadata>
<defs>
<font id="HelveticaRounded-CondBold" horiz-adv-x="240" >
  <font-face 
    font-family="HelveticaRounded-Condensed"
    font-weight="700"
    font-stretch="expanded"
    units-per-em="1000"
    panose-1="2 11 8 0 0 0 0 0 0 0"
    ascent="800"
    descent="-200"
    x-height="541"
    cap-height="733"
    bbox="-48 -216 990 965"
    underline-thickness="50"
    underline-position="-100"
    unicode-range="U+0020-2122"
  />
<missing-glyph horiz-adv-x="502" 
d="M-1 0h500v500h-500v-500zM9 10v480h480v-480h-480z" />
    <glyph glyph-name=".notdef" horiz-adv-x="502" 
d="M-1 0h500v500h-500v-500zM9 10v480h480v-480h-480z" />
    <glyph glyph-name="space" unicode=" " 
 />
    <glyph glyph-name="exclam" unicode="!" horiz-adv-x="278" 
d="M72 509q0 -29 4 -70l19 -212q2 -29 11 -41t33 -12t33 12t11 41l19 212q4 41 4 70v154q0 33 -16.5 51.5t-50.5 18.5q-33 0 -50 -18.5t-17 -51.5v-154zM63 63q0 -32 22 -54t54 -22t54 22t22 54t-22 54t-54 22t-54 -22t-22 -54z" />
    <glyph glyph-name="quotedbl" unicode="&#x22;" horiz-adv-x="426" 
d="M254 523q0 -27 16.5 -45t40.5 -18t40.5 18t16.5 45v151q0 27 -16.5 45t-40.5 18t-40.5 -18t-16.5 -45v-151zM58 523q0 -27 16.5 -45t40.5 -18t40.5 18t16.5 45v151q0 27 -16.5 45t-40.5 18t-40.5 -18t-16.5 -45v-151z" />
    <glyph glyph-name="numbersign" unicode="#" horiz-adv-x="480" 
d="M262 197l-18 -135q0 -1 -1 -9q-3 -18 -3 -24q0 -17 12 -29.5t30 -12.5q27 0 39 14t15 39l20 157h51q22 0 33 14t11 34t-11 34t-33 14h-39l16 121h51q22 0 33.5 14.5t11.5 33.5q0 20 -11.5 34t-33.5 14h-39l19 135q0 1 1 9q3 18 3 24q0 17 -12 29.5t-29 12.5
q-28 0 -39.5 -14t-14.5 -39l-21 -157h-86l18 135q0 1 1 9q3 18 3 24q0 17 -12 29.5t-30 12.5q-27 0 -38.5 -14t-15.5 -39l-20 -157h-51q-22 0 -33 -14t-11 -34t11 -34t33 -14h39l-16 -121h-51q-22 0 -33 -14t-11 -34t11 -34t33 -14h39l-19 -135q0 -1 -1 -9q-3 -18 -3 -24
q0 -17 12 -29.5t29 -12.5q28 0 39.5 14t14.5 39l21 157h86zM275 293h-86l15 121h86z" />
    <glyph glyph-name="dollar" unicode="$" horiz-adv-x="480" 
d="M215 83q-31 3 -47 24.5t-20 59.5q-7 66 -59 66q-27 0 -41 -19.5t-14 -48.5q0 -38 13.5 -70.5t37.5 -56.5q52 -51 130 -51v-77q0 -26 23 -26t23 26v77q88 4 136.5 59.5t48.5 151.5q0 67 -32.5 113t-94.5 82l-58 34v197q18 0 32 -13.5t20 -40.5q6 -30 18 -44.5t41 -14.5
q24 0 39.5 17t15.5 41q0 67 -48 109t-118 42v26q0 27 -23 27t-23 -27v-26q-80 -2 -127 -54.5t-47 -133.5q0 -62 27.5 -108.5t82.5 -81.5l64 -41v-218zM215 452q-36 29 -48 47.5t-12 45.5q0 69 60 79v-172zM261 277q63 -34 63 -102q0 -34 -17.5 -61t-45.5 -31v194z" />
    <glyph glyph-name="percent" unicode="%" horiz-adv-x="870" 
d="M44 538q0 -90 34.5 -136t119.5 -46t119.5 46t34.5 136t-34.5 136t-119.5 46t-119.5 -46t-34.5 -136zM145 560q0 39 11.5 61.5t41.5 22.5t41.5 -22.5t11.5 -61.5v-33q0 -48 -12.5 -71.5t-40.5 -23.5t-40.5 23.5t-12.5 71.5v33zM518 169q0 -90 34.5 -136t119.5 -46
t119.5 46t34.5 136t-34.5 136t-119.5 46t-119.5 -46t-34.5 -136zM619 191q0 39 11.5 61.5t41.5 22.5t41.5 -22.5t11.5 -61.5v-33q0 -48 -12.5 -71.5t-40.5 -23.5t-40.5 23.5t-12.5 71.5v33zM247 22q-6 -13 -6 -29q0 -12 9 -21.5t26 -9.5q31 0 43 26l303 697q6 14 6 29
q0 12 -9 21.5t-26 9.5q-31 0 -43 -26z" />
    <glyph glyph-name="ampersand" unicode="&#x26;" horiz-adv-x="630" 
d="M351 403q52 34 80 81.5t28 99.5q0 57 -39.5 96.5t-112.5 39.5q-72 0 -118 -40.5t-46 -109.5q0 -27 13 -61t44 -84q-67 -44 -102 -99.5t-35 -128.5q0 -94 54.5 -152t149.5 -58q48 0 84.5 13.5t67.5 42.5l18 -26q22 -34 52 -34q27 0 45.5 16t18.5 42q0 21 -20 54l-28 46
q11 19 22 45t20 53t14.5 53t5.5 44q0 28 -13 45t-40 17q-24 0 -36.5 -11.5t-16.5 -39.5q-5 -31 -10.5 -55.5t-11.5 -39.5zM368 133q-21 -22 -40 -31t-45 -9q-40 0 -69 34.5t-29 84.5q0 30 19.5 62t50.5 55zM270 540q-7 12 -10 23.5t-3 26.5q0 19 14 31.5t35 12.5
q20 0 33.5 -14t13.5 -35q0 -24 -9.5 -40.5t-33.5 -38.5l-13 -12z" />
    <glyph glyph-name="quotesingle" unicode="'" horiz-adv-x="222" 
d="M54 523q0 -27 16.5 -45t40.5 -18t40.5 18t16.5 45v151q0 27 -16.5 45t-40.5 18t-40.5 -18t-16.5 -45v-151z" />
    <glyph glyph-name="parenleft" unicode="(" horiz-adv-x="296" 
d="M51 277q0 -101 19.5 -189t49.5 -153t61 -100.5t52 -35.5q19 0 31 10t12 34q0 9 -16 45q-16 34 -28 65t-24.5 78t-20.5 109.5t-8 136.5t8 136.5t20.5 110t24.5 77.5t28 65q16 36 16 45q0 24 -12 34t-31 10q-21 0 -52 -35.5t-61 -100.5t-49.5 -153t-19.5 -189z" />
    <glyph glyph-name="parenright" unicode=")" horiz-adv-x="296" 
d="M245 277q0 101 -19.5 189t-49.5 153t-61 100.5t-52 35.5q-19 0 -31 -10t-12 -34q0 -9 16 -45q16 -34 28 -65t24.5 -78t20.5 -109.5t8 -136.5t-8 -136.5t-20.5 -110t-24.5 -77.5t-28 -65q-16 -36 -16 -45q0 -24 12 -34t31 -10q21 0 52 35.5t61 100.5t49.5 153t19.5 189z
" />
    <glyph glyph-name="asterisk" unicode="*" horiz-adv-x="370" 
d="M221 618h-1v72q0 43 -35 43t-35 -43v-72l-68 22q-11 4 -21 4q-24 0 -31 -24q-2 -7 -2 -13q0 -23 32 -33l68 -23l-42 -58q-12 -16 -12 -29q0 -15 15 -26q10 -8 20 -8q18 0 34 22l42 58l42 -58q16 -22 34 -22q10 0 20 8q15 11 15 26q0 13 -12 29l-42 58l68 22q32 11 32 34
q0 6 -2 13q-7 24 -31 24q-9 0 -20 -4z" />
    <glyph glyph-name="plus" unicode="+" horiz-adv-x="600" 
d="M247 336h-160q-31 0 -50.5 -15.5t-19.5 -37.5t19.5 -37.5t50.5 -15.5h160v-160q0 -31 15 -50.5t38 -19.5t38 19.5t15 50.5v160h160q31 0 50.5 15.5t19.5 37.5t-19.5 37.5t-50.5 15.5h-160v160q0 31 -15 50.5t-38 19.5t-38 -19.5t-15 -50.5v-160z" />
    <glyph glyph-name="comma" unicode="," 
d="M40 60q0 -26 19 -49.5t56 -23.5q12 0 21 1q-5 -24 -27 -45t-43 -28q-15 -5 -20.5 -11t-5.5 -17q0 -9 7.5 -17t19.5 -8q21 0 44.5 13t43.5 38t32.5 58.5t12.5 71.5q0 37 -21 66.5t-59 29.5q-35 0 -57.5 -23t-22.5 -56z" />
    <glyph glyph-name="hyphen" unicode="-" horiz-adv-x="333" 
d="M232 226q31 0 46.5 16.5t15.5 40.5t-15.5 40.5t-46.5 16.5h-131q-31 0 -46.5 -16.5t-15.5 -40.5t15.5 -40.5t46.5 -16.5h131z" />
    <glyph glyph-name="period" unicode="." 
d="M44 63q0 -32 22 -54t54 -22t54 22t22 54t-22 54t-54 22t-54 -22t-22 -54z" />
    <glyph glyph-name="slash" unicode="/" horiz-adv-x="333" 
d="M3 54q-6 -15 -6 -35q0 -16 14.5 -26t33.5 -10t34 12.5t22 31.5l229 639q6 15 6 35q0 16 -14.5 26t-33.5 10t-34 -12.5t-22 -31.5z" />
    <glyph glyph-name="zero" unicode="0" horiz-adv-x="480" 
d="M173 493q0 73 14 102t53 29t53 -29t14 -102v-279q0 -72 -14 -101.5t-53 -29.5t-53 29.5t-14 101.5v279zM39 232q0 -52 7 -94t27.5 -76.5t61.5 -54.5t105 -20q65 0 105.5 20t61 54.5t27.5 76.5t7 94v242q0 53 -7 95t-27.5 76.5t-61.5 54.5t-105 20t-105 -20t-61.5 -54.5
t-27.5 -76.5t-7 -95v-242z" />
    <glyph glyph-name="one" unicode="1" horiz-adv-x="333" 
d="M136 505v-449q0 -30 19.5 -49.5t47.5 -19.5t47.5 19.5t19.5 49.5v616q0 27 -12.5 40.5t-30.5 13.5q-26 0 -36.5 -8.5t-28.5 -42.5q-19 -36 -48.5 -55.5t-85.5 -28.5q-42 -7 -42 -45q0 -21 15.5 -31t41.5 -10h93z" />
    <glyph glyph-name="two" unicode="2" horiz-adv-x="480" 
d="M372 0q36 0 54 13t18 44t-18 44t-54 13h-197q9 33 30.5 65t61.5 72l83 83q88 88 88 193q0 95 -52.5 144t-153.5 49q-87 0 -137.5 -50t-50.5 -132q0 -31 13.5 -52.5t47.5 -21.5q25 0 42 14.5t19 42.5q4 49 19.5 73.5t51.5 24.5q33 0 50 -24t17 -66t-17.5 -75t-69.5 -85
l-47 -47q-39 -39 -65.5 -78t-41.5 -73.5t-21 -63t-6 -50.5q0 -57 59 -57h277z" />
    <glyph glyph-name="three" unicode="3" horiz-adv-x="480" 
d="M33 170q0 -27 8.5 -57.5t30 -59t61.5 -47.5t100 -19q107 0 157.5 56.5t50.5 164.5q0 74 -21 116.5t-75 62.5q41 15 61.5 53.5t20.5 94.5q0 84 -48 134.5t-151 50.5q-91 0 -137.5 -45t-46.5 -118q0 -27 15 -44t42 -17q56 0 65 61q11 67 64 67q34 0 48.5 -23.5t14.5 -60.5
q0 -58 -16 -81t-59 -31q-38 -7 -50 -16.5t-12 -31.5t14 -32.5t54 -14.5q45 -4 64 -28.5t19 -97.5q0 -57 -16.5 -90.5t-55.5 -33.5q-36 0 -54 24t-20 68q-4 75 -67 75q-30 0 -45.5 -21.5t-15.5 -58.5z" />
    <glyph glyph-name="four" unicode="4" horiz-adv-x="480" 
d="M255 250h-135l133 289h2v-289zM255 60q0 -36 16 -54.5t45 -18.5t45 18.5t16 54.5v84h23q22 0 38.5 13t16.5 40t-16.5 40t-38.5 13h-23v413q0 28 -16.5 45.5t-51.5 17.5q-34 0 -50.5 -9.5t-31.5 -39.5l-195 -407q-20 -43 -20 -71q0 -30 18 -42.5t55 -12.5h170v-84z" />
    <glyph glyph-name="five" unicode="5" horiz-adv-x="480" 
d="M168 593h183q36 0 54 13t18 44t-18 44t-54 13h-243q-22 0 -32.5 -14t-11.5 -36l-13 -246l-1 -10q-1 -17 -1 -23q0 -24 14 -41.5t42 -17.5q26 0 39.5 9.5t27.5 28.5q13 17 24 25t31 8q44 0 62 -36t18 -123q0 -78 -15 -113t-57 -35q-34 0 -50 24.5t-18 69.5q-2 29 -17.5 47
t-48.5 18q-32 0 -47 -22t-15 -56q0 -25 7.5 -54t28 -57t60 -47t100.5 -19q62 0 103 19.5t63 54t31 81.5t9 108q0 67 -13 113.5t-36.5 73t-55 38t-70.5 11.5q-36 0 -61.5 -9t-45.5 -29z" />
    <glyph glyph-name="six" unicode="6" horiz-adv-x="480" 
d="M36 317q0 -84 7 -141t28 -99.5t62.5 -66t109.5 -23.5q60 0 99.5 21t62 58t31 83.5t8.5 105.5q0 50 -8.5 91t-28.5 71t-52.5 47t-79.5 17q-32 0 -57.5 -9t-47.5 -31v41q0 69 18 105.5t59 36.5q21 0 31 -7t25 -32q14 -26 25.5 -34t33.5 -8q27 0 43 16t16 42q0 51 -45.5 85
t-131.5 34q-62 0 -103 -22t-63.5 -64t-32 -101t-9.5 -140v-76zM170 233q0 77 14.5 112t55.5 35t55.5 -35t14.5 -112q0 -78 -14.5 -114t-55.5 -36t-55.5 36t-14.5 114z" />
    <glyph glyph-name="seven" unicode="7" horiz-adv-x="444" 
d="M302 587q-34 -60 -66.5 -137t-58 -155t-40.5 -141.5t-15 -97.5q0 -31 15 -50t46 -19q32 0 51 18.5t22 50.5q5 58 20 127.5t36 139.5t45 132.5t48 108.5q26 49 32.5 66t6.5 27q0 29 -15.5 39.5t-48.5 10.5h-307q-31 0 -47 -19.5t-16 -41.5q0 -20 16 -39.5t47 -19.5h229z
" />
    <glyph glyph-name="eight" unicode="8" horiz-adv-x="480" 
d="M169 237q0 18 3 35t10.5 32t22 24.5t35.5 9.5t35.5 -9.5t22 -24.5t10.5 -32t3 -35v-53q0 -46 -15 -73.5t-56 -27.5q-40 0 -55.5 27.5t-15.5 73.5v53zM175 529q0 45 16 70t49 25q38 0 51.5 -26t13.5 -69t-13.5 -69t-51.5 -26t-51.5 26t-13.5 69zM35 200q0 -43 8.5 -79.5
t30 -67t63 -48.5t103.5 -18q63 0 104 18t62.5 48.5t30 67t8.5 79.5q0 67 -20 114t-71 71q43 22 61 57t18 87q0 91 -48.5 141t-144.5 50t-144.5 -50t-48.5 -141q0 -52 18 -87t61 -57q-51 -24 -71 -71t-20 -114z" />
    <glyph glyph-name="nine" unicode="9" horiz-adv-x="480" 
d="M444 390q0 84 -7 141t-28 99.5t-62.5 66t-109.5 23.5q-60 0 -99.5 -21t-62 -58t-31 -83.5t-8.5 -105.5q0 -50 8.5 -91t28.5 -71t52.5 -47t79.5 -17q32 0 57.5 9t47.5 31v-41q0 -69 -17.5 -105.5t-59.5 -36.5q-21 0 -31 7t-25 32q-14 26 -25.5 34t-33.5 8q-27 0 -43 -16
t-16 -42q0 -51 45.5 -85t131.5 -34q62 0 103 22t64 64t32 101t9 140v76zM170 474q0 78 14.5 114t55.5 36t55.5 -36t14.5 -114q0 -77 -14.5 -112t-55.5 -35t-55.5 35t-14.5 112z" />
    <glyph glyph-name="colon" unicode=":" 
d="M44 465q0 -32 22 -54t54 -22t54 22t22 54t-22 54t-54 22t-54 -22t-22 -54zM44 63q0 -32 22 -54t54 -22t54 22t22 54t-22 54t-54 22t-54 -22t-22 -54z" />
    <glyph glyph-name="semicolon" unicode=";" 
d="M40 60q0 -26 19 -49.5t56 -23.5q12 0 21 1q-5 -24 -27 -45t-43 -28q-15 -5 -20.5 -11t-5.5 -17q0 -9 7.5 -17t19.5 -8q21 0 44.5 13t43.5 38t32.5 58.5t12.5 71.5q0 37 -21 66.5t-59 29.5q-35 0 -57.5 -23t-22.5 -56zM44 465q0 -32 22 -54t54 -22t54 22t22 54t-22 54
t-54 22t-54 -22t-22 -54z" />
    <glyph glyph-name="less" unicode="&#x3c;" horiz-adv-x="600" 
d="M467 39q17 -8 30 -11t25 -3q23 0 39 12.5t16 25.5q0 18 -9.5 32.5t-37.5 26.5l-367 161l367 161q28 12 37.5 26.5t9.5 32.5q0 13 -16 25.5t-39 12.5q-12 0 -25 -3t-30 -11l-407 -187q-16 -8 -26.5 -23.5t-10.5 -33.5t10.5 -33.5t26.5 -23.5z" />
    <glyph glyph-name="equal" unicode="=" horiz-adv-x="600" 
d="M513 348q31 0 50.5 15.5t19.5 37.5t-19.5 37.5t-50.5 15.5h-426q-31 0 -50.5 -15.5t-19.5 -37.5t19.5 -37.5t50.5 -15.5h426zM513 112q31 0 50.5 15.5t19.5 37.5t-19.5 37.5t-50.5 15.5h-426q-31 0 -50.5 -15.5t-19.5 -37.5t19.5 -37.5t50.5 -15.5h426z" />
    <glyph glyph-name="greater" unicode="&#x3e;" horiz-adv-x="600" 
d="M70 122q-28 -12 -37.5 -26.5t-9.5 -32.5q0 -13 16 -25.5t39 -12.5q12 0 25 3t30 11l407 187q16 8 26.5 23.5t10.5 33.5t-10.5 33.5t-26.5 23.5l-407 187q-17 8 -30 11t-25 3q-23 0 -39 -12.5t-16 -25.5q0 -18 9.5 -32.5t37.5 -26.5l367 -161z" />
    <glyph glyph-name="question" unicode="?" horiz-adv-x="481" 
d="M201 385q-29 -33 -43.5 -72.5t-14.5 -75.5q0 -29 16 -46t41 -17q26 0 40.5 14.5t16.5 37.5q4 37 15.5 59.5t45.5 59.5l29 32q39 43 57 82t18 87q0 187 -195 187q-81 0 -128.5 -45t-47.5 -116q0 -28 16.5 -44.5t43.5 -16.5q30 0 44 14.5t18 51.5q4 25 20 40t39 15
q30 0 46 -21.5t16 -55.5q0 -30 -12 -60.5t-45 -68.5zM124 63q0 -32 22 -54t54 -22t54 22t22 54t-22 54t-54 22t-54 -22t-22 -54z" />
    <glyph glyph-name="at" unicode="@" horiz-adv-x="800" 
d="M310 337q0 42 29.5 73t71.5 31q38 0 58 -22t20 -58q0 -46 -29.5 -77t-80.5 -31q-36 0 -52.5 23t-16.5 61zM614 475q4 19 4 28q0 21 -13 32.5t-33 11.5q-16 0 -28.5 -7.5t-17.5 -29.5l-4 -18q-26 33 -54 48t-72 15q-38 0 -74.5 -18.5t-65 -50t-44.5 -71.5t-16 -81
q0 -90 43 -138.5t105 -48.5q72 0 112 43h2q4 -20 20.5 -31.5t49.5 -11.5q29 0 70 13.5t82 45t69 87t28 134.5q0 70 -28 128t-78 98.5t-115 62t-139 21.5q-80 0 -152 -28.5t-126.5 -80t-85 -120.5t-30.5 -149q0 -81 31 -150t86.5 -120t128.5 -78.5t154 -27.5q50 0 96.5 12.5
t83 32t58 40t21.5 33.5q0 15 -11.5 25.5t-28.5 10.5q-11 0 -35 -15q-34 -21 -74.5 -34.5t-109.5 -13.5q-60 0 -112.5 19t-91.5 56t-60.5 90.5t-21.5 119.5q0 59 21.5 112t59.5 92t89 61t107 22q124 0 198 -64t74 -183q0 -76 -27.5 -115t-63.5 -39q-20 0 -20 19q0 15 5 43v2z
" />
    <glyph glyph-name="A" unicode="A" horiz-adv-x="519" 
d="M338 180l21 -106q10 -50 27 -68.5t54 -18.5q28 0 47 15.5t19 46.5q0 8 -2.5 20.5t-7.5 34.5l-127 535q-13 55 -36 74.5t-74 19.5q-55 0 -76 -19t-34 -75l-128 -539q-3 -14 -5.5 -29.5t-2.5 -25.5q0 -26 16.5 -42t46.5 -16q32 0 47.5 14.5t22.5 48.5l27 130h165zM195 286
l61 299h2l59 -299h-122z" />
    <glyph glyph-name="B" unicode="B" horiz-adv-x="519" 
d="M56 72q0 -72 72 -72h173q50 0 86 18t58 49t32 70.5t10 85.5q0 62 -21.5 103t-73.5 60q35 13 55 53.5t20 94.5q0 89 -37.5 137.5t-121.5 48.5h-180q-72 0 -72 -72v-576zM190 326h78q43 0 61 -28.5t18 -77.5q0 -119 -77 -119h-80v225zM190 619h71q34 0 53 -22t19 -71
q0 -99 -82 -99h-61v192z" />
    <glyph glyph-name="C" unicode="C" horiz-adv-x="500" 
d="M40 296q0 -68 5.5 -118t26 -95t65 -72.5t119.5 -27.5q103 0 160.5 51t57.5 159q0 37 -17 58t-51 21q-41 0 -55 -23.5t-17 -86.5q-1 -31 -21 -52t-46 -21q-57 0 -72 56.5t-15 203.5v40q0 80 5.5 128t16.5 72.5t27.5 33t41.5 8.5q52 0 62 -73q6 -47 20 -64t52 -17
q36 0 52 21t16 59q0 78 -53 129t-149 51q-62 0 -105.5 -16t-71 -53t-41 -99.5t-13.5 -158.5v-114z" />
    <glyph glyph-name="D" unicode="D" horiz-adv-x="537" 
d="M190 614h66q60 0 80.5 -48t20.5 -171v-58q0 -133 -24.5 -182t-80.5 -49h-62v508zM56 72q0 -72 72 -72h169q98 0 149 76.5t51 235.5v93q0 165 -45.5 240t-148.5 75h-175q-72 0 -72 -72v-576z" />
    <glyph glyph-name="E" unicode="E" horiz-adv-x="500" 
d="M190 314h186q36 0 53 16.5t17 43.5t-17 43.5t-53 16.5h-186v166h199q36 0 53 16.5t17 43.5t-17 43.5t-53 16.5h-261q-72 0 -72 -72v-576q0 -72 72 -72h268q36 0 53 16.5t17 43.5t-17 43.5t-53 16.5h-206v194z" />
    <glyph glyph-name="F" unicode="F" horiz-adv-x="480" 
d="M190 314h186q36 0 53 16.5t17 43.5t-17 43.5t-53 16.5h-186v166h186q36 0 53 16.5t17 43.5t-17 43.5t-53 16.5h-248q-72 0 -72 -72v-592q0 -30 19.5 -49.5t47.5 -19.5t47.5 19.5t19.5 49.5v258z" />
    <glyph glyph-name="G" unicode="G" horiz-adv-x="519" 
d="M473 328q0 34 -15.5 50t-51.5 16h-112q-28 0 -43 -14t-15 -43q0 -25 13.5 -41t40.5 -16h55v-41q0 -71 -17 -108.5t-59 -37.5q-53 0 -71 53t-18 190v100q0 60 6 99t17 59.5t25.5 28.5t34.5 8q37 0 55 -18t21 -45q5 -48 19 -67t48 -19q35 0 51 21t16 59q0 33 -12 64t-37 56
t-64.5 40t-90.5 15q-63 0 -106 -17.5t-70 -56.5t-40 -101.5t-13 -155.5v-73q0 -83 8.5 -145t29.5 -107t59 -69.5t95 -24.5q91 0 134 78h2v-19q0 -26 13.5 -42.5t39.5 -16.5q27 0 39.5 14.5t12.5 40.5v286z" />
    <glyph glyph-name="H" unicode="H" horiz-adv-x="556" 
d="M366 328v-272q0 -30 19.5 -49.5t47.5 -19.5t47.5 19.5t19.5 49.5v608q0 31 -19.5 50t-47.5 19t-47.5 -19t-19.5 -50v-230h-176v230q0 31 -19.5 50t-47.5 19t-47.5 -19t-19.5 -50v-608q0 -30 19.5 -49.5t47.5 -19.5t47.5 19.5t19.5 49.5v272h176z" />
    <glyph glyph-name="I" unicode="I" horiz-adv-x="258" 
d="M62 56q0 -30 19.5 -49.5t47.5 -19.5t47.5 19.5t19.5 49.5v608q0 31 -19.5 50t-47.5 19t-47.5 -19t-19.5 -50v-608z" />
    <glyph glyph-name="J" unicode="J" horiz-adv-x="444" 
d="M254 163q0 -40 -12 -57t-38 -17q-46 0 -46 71q0 48 -15.5 71t-52.5 23q-29 0 -47.5 -21t-18.5 -63q0 -41 9 -74.5t29.5 -59t55 -39.5t84.5 -14q186 0 186 177v504q0 31 -19.5 50t-47.5 19t-47.5 -19t-19.5 -50v-501z" />
    <glyph glyph-name="K" unicode="K" horiz-adv-x="519" 
d="M56 56q0 -30 19.5 -49.5t47.5 -19.5t47.5 19.5t19.5 49.5v141l55 83l114 -239q14 -30 28.5 -42t43.5 -12q33 0 52 16.5t19 41.5q0 18 -14 46l-156 321l131 211q8 13 13 27t5 25q0 25 -19.5 41.5t-47.5 16.5q-21 0 -35 -9t-27 -33l-160 -291h-2v264q0 31 -19.5 50
t-47.5 19t-47.5 -19t-19.5 -50v-608z" />
    <glyph glyph-name="L" unicode="L" horiz-adv-x="481" 
d="M190 120v544q0 31 -19.5 50t-47.5 19t-47.5 -19t-19.5 -50v-592q0 -72 72 -72h263q36 0 53 16.5t17 43.5t-17 43.5t-53 16.5h-201z" />
    <glyph glyph-name="M" unicode="M" horiz-adv-x="704" 
d="M58 56q0 -30 19.5 -49.5t47.5 -19.5t47.5 19.5t19.5 49.5v517h2l110 -542q5 -21 14.5 -32.5t33.5 -11.5t33.5 11.5t14.5 32.5l110 542h2v-517q0 -30 19.5 -49.5t47.5 -19.5t47.5 19.5t19.5 49.5v578q0 52 -23 75.5t-85 23.5q-52 0 -79.5 -23.5t-39.5 -83.5l-66 -346h-2
l-66 346q-12 60 -39 83.5t-80 23.5q-62 0 -85 -23.5t-23 -75.5v-578z" />
    <glyph glyph-name="N" unicode="N" horiz-adv-x="574" 
d="M56 56q0 -30 19.5 -49.5t47.5 -19.5t47.5 19.5t19.5 49.5v399h2l159 -400q16 -41 37 -54.5t63 -13.5q28 0 47.5 20t19.5 55v602q0 31 -19.5 50t-47.5 19t-47.5 -19t-19.5 -50v-393h-2l-159 394q-17 41 -37.5 54.5t-55.5 13.5t-54.5 -18.5t-19.5 -50.5v-608z" />
    <glyph glyph-name="O" unicode="O" horiz-adv-x="520" 
d="M40 290q0 -98 16 -159.5t45.5 -93.5t68 -43t90.5 -11t90.5 11t68 43t45.5 93.5t16 159.5v152q0 95 -17.5 154.5t-48 90t-68.5 40.5t-86 10t-86 -10t-68 -40.5t-48 -90t-18 -154.5v-152zM180 442q0 111 19 150t61 39t61 -39t19 -150v-152q0 -64 -5 -104.5t-14.5 -61
t-24 -28t-36.5 -7.5t-36.5 7.5t-24 28t-14.5 61t-5 104.5v152z" />
    <glyph glyph-name="P" unicode="P" horiz-adv-x="500" 
d="M56 56q0 -30 19.5 -49.5t47.5 -19.5t47.5 19.5t19.5 49.5v250h116q84 0 127.5 60t43.5 151q0 105 -47.5 154t-134.5 49h-167q-72 0 -72 -72v-592zM190 619h67q39 0 59.5 -26.5t20.5 -81.5q0 -49 -21.5 -76.5t-65.5 -27.5h-60v212z" />
    <glyph glyph-name="Q" unicode="Q" horiz-adv-x="520" 
d="M40 290q0 -98 16 -159.5t45.5 -93.5t68 -43t90.5 -11q35 0 63.5 4.5t51.5 17.5l28 -29q36 -36 61 -36q16 0 30 13t14 30q0 12 -6.5 24.5t-22.5 27.5l-38 36q19 36 29 89.5t10 129.5v152q0 95 -17.5 154.5t-48 90t-68.5 40.5t-86 10t-86 -10t-68 -40.5t-48 -90t-18 -154.5
v-152zM180 442q0 111 19 150t61 39t61 -39t19 -150v-152q0 -78 -7 -119q-11 11 -23 11q-19 0 -33 -13t-14 -32q0 -11 4 -19.5t14 -18.5l6 -6q-12 -4 -27 -4q-22 0 -36.5 7.5t-24 28t-14.5 61t-5 104.5v152z" />
    <glyph glyph-name="R" unicode="R" horiz-adv-x="519" 
d="M56 56q0 -30 19.5 -49.5t47.5 -19.5t47.5 19.5t19.5 49.5v258h58q76 0 79 -75l6 -184q2 -34 23 -51t59 -17q31 0 47.5 12.5t16.5 30.5t-4 53q-5 39 -5 59v77q0 68 -16.5 101.5t-66.5 51.5q47 19 67 56t20 107q0 40 -8.5 73t-27.5 58.5t-50.5 39.5t-75.5 14h-184
q-72 0 -72 -72v-592zM190 619h58q47 0 66.5 -23.5t19.5 -78.5t-24 -78.5t-68 -23.5h-52v204z" />
    <glyph glyph-name="S" unicode="S" horiz-adv-x="500" 
d="M261 280q38 -27 53 -49t15 -58q0 -37 -20 -60.5t-58 -23.5t-58 24.5t-22 64.5q-3 47 -18.5 67t-47.5 20q-39 0 -53.5 -24.5t-14.5 -66.5q0 -19 7.5 -49.5t28 -63t61 -55.5t101.5 -23q113 0 170.5 53.5t57.5 148.5q0 74 -28.5 120t-88.5 85l-99 65q-45 30 -58.5 53.5
t-13.5 53.5q0 32 20 50.5t51 18.5q30 0 49 -15.5t23 -51.5q5 -42 17.5 -59t50.5 -17q30 0 48 17.5t18 50.5q0 30 -10.5 61.5t-34 58.5t-62.5 44t-92 17q-91 0 -151.5 -48.5t-60.5 -139.5q0 -58 20.5 -100t70.5 -78z" />
    <glyph glyph-name="T" unicode="T" horiz-adv-x="520" 
d="M87 720q-36 0 -53 -16.5t-17 -43.5t17 -43.5t53 -16.5h106v-544q0 -30 19.5 -49.5t47.5 -19.5t47.5 19.5t19.5 49.5v544h106q36 0 53 16.5t17 43.5t-17 43.5t-53 16.5h-346z" />
    <glyph glyph-name="U" unicode="U" horiz-adv-x="537" 
d="M51 191q0 -97 56 -152.5t162 -55.5t161.5 55.5t55.5 152.5v473q0 31 -19.5 50t-47.5 19t-47.5 -19t-19.5 -50v-460q0 -57 -22 -86t-61 -29t-61.5 29t-22.5 86v460q0 31 -19.5 50t-47.5 19t-47.5 -19t-19.5 -50v-473z" />
    <glyph glyph-name="V" unicode="V" horiz-adv-x="500" 
d="M152 64q9 -40 29.5 -58.5t69.5 -18.5q50 0 72.5 14t31.5 58l119 559q7 37 7 54q0 29 -17 45t-49 16t-46.5 -18t-20.5 -53l-88 -520h-2l-102 532q-6 32 -21.5 45.5t-46.5 13.5q-30 0 -49.5 -19.5t-19.5 -45.5q0 -5 3 -21.5t6 -29.5z" />
    <glyph glyph-name="W" unicode="W" horiz-adv-x="759" 
d="M377 449h2l66 -384q4 -26 9 -40.5t14 -23t24.5 -11.5t43.5 -3q52 0 69 12q10 8 15.5 22t10.5 39l102 563q6 30 6 48q0 62 -65 62q-29 0 -46.5 -13.5t-22.5 -46.5l-72 -498h-2l-90 503q-5 29 -18 42t-43 13t-43 -13t-18 -42l-81 -503h-2l-82 502q-4 27 -18.5 41.5
t-43.5 14.5q-34 0 -53 -16.5t-19 -42.5q0 -12 7 -51v-1l109 -576q6 -31 24.5 -45t63.5 -14q44 0 62 11t24 44z" />
    <glyph glyph-name="X" unicode="X" horiz-adv-x="500" 
d="M46 112q-11 -23 -16 -37.5t-5 -27.5q0 -27 18.5 -43.5t47.5 -16.5q44 0 62 42l93 213l90 -205q11 -26 27 -38t43 -12q32 0 50.5 18t18.5 43q0 7 -3.5 17.5t-8.5 21.5l-138 281l131 264q11 22 11 42q0 28 -19 43.5t-51 15.5q-21 0 -35.5 -11.5t-26.5 -37.5l-86 -194
l-71 178q-16 38 -33.5 51.5t-43.5 13.5q-29 0 -49 -17t-20 -43q0 -19 16 -52l125 -253z" />
    <glyph glyph-name="Y" unicode="Y" horiz-adv-x="481" 
d="M174 56q0 -30 19.5 -49.5t47.5 -19.5t47.5 19.5t19.5 49.5v247l147 335q10 22 10 41q0 21 -18 37.5t-46 16.5q-25 0 -41 -10.5t-28 -42.5l-91 -238l-86 228q-14 38 -28 50.5t-45 12.5q-28 0 -47 -15.5t-19 -45.5q0 -19 12 -47l146 -329v-240z" />
    <glyph glyph-name="Z" unicode="Z" horiz-adv-x="519" 
d="M317 600l-272 -476q-14 -23 -18 -35t-4 -26q0 -24 18.5 -43.5t51.5 -19.5h333q36 0 53 16.5t17 43.5t-17 43.5t-53 16.5h-235l273 470q25 41 25 71q0 59 -71 59h-308q-36 0 -53 -16.5t-17 -43.5t17 -43.5t53 -16.5h207z" />
    <glyph glyph-name="bracketleft" unicode="[" horiz-adv-x="296" 
d="M69 -107q0 -72 77 -72h83q21 0 34.5 13t13.5 35t-13.5 35t-34.5 13h-38v720h38q21 0 34.5 13t13.5 35t-13.5 35t-34.5 13h-83q-77 0 -77 -72v-768z" />
    <glyph glyph-name="backslash" unicode="\" horiz-adv-x="333" 
d="M232 27q7 -19 22 -31.5t34 -12.5t33.5 10t14.5 26q0 20 -6 35l-229 639q-7 19 -22 31.5t-34 12.5t-33.5 -10t-14.5 -26q0 -20 6 -35z" />
    <glyph glyph-name="bracketright" unicode="]" horiz-adv-x="296" 
d="M105 -83h-38q-21 0 -34.5 -13t-13.5 -35t13.5 -35t34.5 -13h83q77 0 77 72v768q0 72 -77 72h-83q-21 0 -34.5 -13t-13.5 -35t13.5 -35t34.5 -13h38v-720z" />
    <glyph glyph-name="asciicircum" unicode="^" horiz-adv-x="600" 
d="M80 397q-13 -25 -13 -44q0 -14 10.5 -25t36.5 -11q22 0 37 8.5t28 31.5l121 223l121 -223q13 -23 28 -31.5t37 -8.5q26 0 36.5 11t10.5 25q0 19 -13 44l-154 280q-13 25 -29 34t-37 9t-37 -9t-29 -34z" />
    <glyph glyph-name="underscore" unicode="_" horiz-adv-x="500" 
d="M500 -125q12 0 12 25t-12 25h-500q-12 0 -12 -25t12 -25h500z" />
    <glyph glyph-name="grave" unicode="`" 
d="M111 605q18 -16 36 -16q19 0 30.5 12.5t11.5 31.5q0 18 -15 33l-84 85q-10 10 -18 13t-21 3q-17 0 -30.5 -12t-13.5 -31q0 -12 7 -24t18 -22z" />
    <glyph glyph-name="a" unicode="a" horiz-adv-x="444" 
d="M395 394q0 38 -6 65.5t-24.5 49t-55 33.5t-95.5 12q-73 0 -121.5 -38t-48.5 -106q0 -25 20 -37.5t44 -12.5t40 10.5t18 28.5q4 34 17 49t43 15q22 0 34.5 -15.5t12.5 -38.5q0 -37 -39 -57l-109 -57q-48 -25 -67.5 -63t-19.5 -100q0 -73 34.5 -109t91.5 -36
q36 0 65.5 16.5t45.5 51.5l2 1q0 -37 18 -53t46 -16q61 0 61 48q0 7 -3 27q-4 33 -4 54v278zM273 184q0 -44 -17.5 -72.5t-46.5 -28.5q-20 0 -31.5 17t-11.5 47q0 35 12 55t52 48l43 30v-96z" />
    <glyph glyph-name="b" unicode="b" horiz-adv-x="463" 
d="M181 322q0 74 17 102.5t43 28.5q31 0 41.5 -31t10.5 -121v-71q0 -75 -9.5 -108.5t-41.5 -33.5q-34 0 -47.5 34.5t-13.5 97.5v102zM59 60q0 -36 16 -54.5t45 -18.5q27 0 44 18t17 45h2q16 -31 44 -47t64 -16q40 0 65.5 16.5t39.5 45.5t19.5 66t5.5 83v145q0 47 -5 83.5
t-19.5 65.5t-40 45.5t-65.5 16.5q-34 0 -63 -16.5t-45 -46.5h-2v169q0 36 -16 54.5t-45 18.5t-45 -18.5t-16 -54.5v-600z" />
    <glyph glyph-name="c" unicode="c" horiz-adv-x="426" 
d="M42 221q0 -56 5.5 -96t24 -71.5t54.5 -49t95 -17.5q50 0 84 17.5t52.5 44t25.5 54t7 52.5q0 33 -16.5 52t-43.5 19q-31 0 -45.5 -19t-16.5 -69q-1 -30 -13.5 -42.5t-32.5 -12.5q-29 0 -40.5 30t-11.5 98v120q0 66 9.5 96.5t42.5 30.5q21 0 33.5 -13.5t12.5 -38.5
q0 -37 15.5 -53t46.5 -16q27 0 43.5 17.5t16.5 51.5q0 22 -7.5 46.5t-26.5 48t-52.5 38.5t-82.5 15q-59 0 -95 -17.5t-54.5 -48.5t-24 -71.5t-5.5 -96.5v-99z" />
    <glyph glyph-name="d" unicode="d" horiz-adv-x="463" 
d="M170 301q0 90 10.5 121t41.5 31q26 0 43 -28.5t17 -102.5v-102q0 -63 -13.5 -97.5t-47.5 -34.5q-31 0 -41 33.5t-10 108.5v71zM42 198q0 -46 5.5 -83t19.5 -66t39.5 -45.5t65.5 -16.5q36 0 64 16t44 47h2q0 -27 17 -45t44 -18q29 0 45 18.5t16 54.5v600q0 36 -16 54.5
t-45 18.5t-45 -18.5t-16 -54.5v-169h-2q-16 30 -45 46.5t-63 16.5q-40 0 -65.5 -16.5t-39.5 -45.5t-19.5 -65.5t-5.5 -83.5v-145z" />
    <glyph glyph-name="e" unicode="e" horiz-adv-x="426" 
d="M166 340v45q0 34 12.5 53.5t40.5 19.5t40.5 -19.5t12.5 -53.5v-45h-106zM38 214q0 -59 6.5 -98.5t25.5 -68.5t56.5 -44.5t97.5 -15.5q75 0 120.5 42t45.5 115q0 34 -16 47t-46 13q-28 0 -43.5 -14t-16.5 -51q-1 -22 -14.5 -39t-32.5 -17q-34 0 -44.5 29t-10.5 87v55h160
q42 0 55 21.5t13 65.5q0 110 -38.5 161.5t-131.5 51.5q-60 0 -97.5 -15.5t-56.5 -44.5t-25.5 -68.5t-6.5 -98.5v-113z" />
    <glyph glyph-name="f" unicode="f" horiz-adv-x="259" 
d="M67 60q0 -36 16 -54.5t45 -18.5t45 18.5t16 54.5v390h19q54 0 54 45q0 46 -54 46h-19v50q0 25 7 35t29 11q37 2 37 42q0 54 -61 54q-71 0 -102.5 -26.5t-31.5 -93.5v-72h-13q-54 0 -54 -46q0 -45 54 -45h13v-390z" />
    <glyph glyph-name="g" unicode="g" horiz-adv-x="463" 
d="M170 334q0 64 13.5 91.5t40.5 27.5q10 0 20 -5.5t18.5 -20t14 -40.5t5.5 -65v-95q0 -74 -17 -102.5t-43 -28.5q-31 0 -41.5 31t-10.5 121v86zM42 211q0 -46 5.5 -83t19.5 -66t39.5 -45.5t65.5 -16.5q41 0 64.5 12.5t43.5 48.5h2v-75q0 -58 -13 -82.5t-51 -24.5
q-12 0 -23.5 8t-18.5 25q-7 16 -20.5 26t-33.5 10q-27 0 -44 -14.5t-17 -39.5q0 -51 44 -76t116 -25q93 0 138 43t45 134v511q0 36 -15.5 54.5t-42.5 18.5q-60 0 -60 -73h-2q-14 34 -44.5 53.5t-67.5 19.5t-62.5 -16.5t-40 -45t-21 -64t-6.5 -77.5v-140z" />
    <glyph glyph-name="h" unicode="h" horiz-adv-x="463" 
d="M54 60q0 -36 16 -54.5t45 -18.5t45 18.5t16 54.5v291q0 49 17 73t47 24q21 0 34 -14.5t13 -42.5v-331q0 -36 16 -54.5t45 -18.5t45 18.5t16 54.5v360q0 67 -32 100.5t-85 33.5q-37 0 -68.5 -18t-45.5 -52h-2v176q0 36 -16 54.5t-45 18.5t-45 -18.5t-16 -54.5v-600z" />
    <glyph glyph-name="i" unicode="i" 
d="M59 60q0 -36 16 -54.5t45 -18.5t45 18.5t16 54.5v421q0 36 -16 54.5t-45 18.5t-45 -18.5t-16 -54.5v-421zM50 667q0 -29 20.5 -49.5t49.5 -20.5t49.5 20.5t20.5 49.5t-20.5 49.5t-49.5 20.5t-49.5 -20.5t-20.5 -49.5z" />
    <glyph glyph-name="j" unicode="j" 
d="M59 -64q0 -39 -18 -43q-21 -5 -31 -14.5t-10 -33.5t12.5 -38t44.5 -14q59 0 91.5 28.5t32.5 87.5v572q0 36 -16 54.5t-45 18.5t-45 -18.5t-16 -54.5v-545zM50 667q0 -29 20.5 -49.5t49.5 -20.5t49.5 20.5t20.5 49.5t-20.5 49.5t-49.5 20.5t-49.5 -20.5t-20.5 -49.5z" />
    <glyph glyph-name="k" unicode="k" horiz-adv-x="444" 
d="M54 60q0 -36 16 -54.5t45 -18.5t45 18.5t16 54.5v108l39 50l78 -184q11 -25 26.5 -36t40.5 -11t42.5 14t17.5 36q0 20 -7 35l-111 256l92 132q9 13 12.5 22t3.5 20q0 24 -19 38t-41 14q-19 0 -35 -14t-31 -37l-106 -166h-2v323q0 36 -16 54.5t-45 18.5t-45 -18.5
t-16 -54.5v-600z" />
    <glyph glyph-name="l" unicode="l" 
d="M59 60q0 -36 16 -54.5t45 -18.5t45 18.5t16 54.5v600q0 36 -16 54.5t-45 18.5t-45 -18.5t-16 -54.5v-600z" />
    <glyph glyph-name="m" unicode="m" horiz-adv-x="686" 
d="M636 420q0 67 -32 100.5t-85 33.5q-39 0 -67 -13.5t-55 -47.5q-18 34 -43 47.5t-66 13.5q-37 0 -68.5 -18t-45.5 -52h-2q0 70 -61 70q-29 0 -45 -18.5t-16 -54.5v-421q0 -36 16 -54.5t45 -18.5t45 18.5t16 54.5v291q0 49 16.5 73t46.5 24q21 0 34 -14.5t13 -42.5v-331
q0 -36 16 -54.5t45 -18.5t45 18.5t16 54.5v291q0 49 16.5 73t46.5 24q21 0 34 -14.5t13 -42.5v-331q0 -36 16 -54.5t45 -18.5t45 18.5t16 54.5v360z" />
    <glyph glyph-name="n" unicode="n" horiz-adv-x="463" 
d="M54 60q0 -36 16 -54.5t45 -18.5t45 18.5t16 54.5v291q0 49 17 73t47 24q21 0 34 -14.5t13 -42.5v-331q0 -36 16 -54.5t45 -18.5t45 18.5t16 54.5v360q0 67 -32 100.5t-85 33.5q-37 0 -68.5 -18t-45.5 -52h-2q0 70 -61 70q-29 0 -45 -18.5t-16 -54.5v-421z" />
    <glyph glyph-name="o" unicode="o" horiz-adv-x="444" 
d="M166 336q0 70 13.5 96t42.5 26t42.5 -26t13.5 -96v-129q0 -73 -12.5 -98.5t-43.5 -25.5t-43.5 25.5t-12.5 98.5v129zM38 197q0 -46 8.5 -83.5t29.5 -66t57 -44.5t89 -16t89 16t57 44.5t29.5 66t8.5 83.5v147q0 46 -8.5 83.5t-29.5 66t-57 44.5t-89 16t-89 -16t-57 -44.5
t-29.5 -66t-8.5 -83.5v-147z" />
    <glyph glyph-name="p" unicode="p" horiz-adv-x="463" 
d="M181 322q0 74 17 102.5t43 28.5q31 0 41.5 -31t10.5 -121v-76q0 -75 -9.5 -108.5t-41.5 -33.5q-34 0 -47.5 34.5t-13.5 97.5v107zM59 -134q0 -36 16 -54.5t45 -18.5t45 18.5t16 54.5v182h2q16 -30 44.5 -45.5t63.5 -15.5q40 0 65.5 16.5t39.5 45.5t19.5 66t5.5 83v145
q0 47 -5 83.5t-19.5 65.5t-40 45.5t-65.5 16.5q-33 0 -63 -19.5t-45 -53.5h-2q0 36 -16 54.5t-45 18.5t-45 -18.5t-16 -54.5v-615z" />
    <glyph glyph-name="q" unicode="q" horiz-adv-x="463" 
d="M282 215q0 -63 -13.5 -97.5t-47.5 -34.5q-31 0 -41 33.5t-10 108.5v76q0 90 10.5 121t41.5 31q26 0 43 -28.5t17 -102.5v-107zM404 481q0 36 -16 54.5t-45 18.5t-45 -18.5t-16 -54.5h-2q-15 34 -45 53.5t-63 19.5q-40 0 -65.5 -16.5t-39.5 -45.5t-19.5 -65.5t-5.5 -83.5
v-145q0 -46 5.5 -83t19.5 -66t39.5 -45.5t65.5 -16.5q35 0 63.5 15.5t44.5 45.5h2v-182q0 -36 16 -54.5t45 -18.5t45 18.5t16 54.5v615z" />
    <glyph glyph-name="r" unicode="r" horiz-adv-x="333" 
d="M54 60q0 -36 16 -54.5t45 -18.5t45 18.5t16 54.5v268q0 35 19.5 54.5t49.5 19.5q40 0 58 21t18 52q0 39 -17 59t-43 20q-30 0 -53.5 -31.5t-37.5 -85.5h-2v51q0 31 -14 48.5t-43 17.5t-43 -17.5t-14 -48.5v-428z" />
    <glyph glyph-name="s" unicode="s" horiz-adv-x="407" 
d="M211 196q25 -19 34 -33.5t9 -34.5q0 -50 -48 -50q-26 0 -38.5 12.5t-14.5 31.5q-3 40 -17 57.5t-47 17.5q-25 0 -41.5 -14.5t-16.5 -46.5q0 -26 8.5 -51.5t28 -48t52.5 -36t79 -13.5q78 0 127.5 41t49.5 118q0 51 -26 84.5t-90 81.5l-75 57q-27 20 -27 52q0 20 11.5 31
t30.5 11q50 0 53 -55q3 -47 50 -47q35 0 49.5 15.5t14.5 44.5q0 19 -8 41.5t-27 43.5t-51 34.5t-78 13.5q-76 0 -121.5 -37.5t-45.5 -108.5q0 -46 16 -76t66 -67z" />
    <glyph glyph-name="t" unicode="t" horiz-adv-x="259" 
d="M67 94q0 -43 29 -71.5t94 -28.5q77 0 77 57q0 23 -11.5 32.5t-33.5 10.5q-20 1 -26.5 10t-6.5 28v318h28q54 0 54 45q0 46 -54 46h-28v93q0 36 -16 54.5t-45 18.5t-45 -18.5t-16 -54.5v-93h-13q-54 0 -54 -46q0 -45 54 -45h13v-356z" />
    <glyph glyph-name="u" unicode="u" horiz-adv-x="463" 
d="M54 121q0 -67 32 -100.5t85 -33.5q37 0 68.5 18t45.5 52h2q0 -70 61 -70q29 0 45 18.5t16 54.5v421q0 36 -16 54.5t-45 18.5t-45 -18.5t-16 -54.5v-291q0 -97 -64 -97q-47 0 -47 57v331q0 36 -16 54.5t-45 18.5t-45 -18.5t-16 -54.5v-360z" />
    <glyph glyph-name="v" unicode="v" horiz-adv-x="426" 
d="M123 64q10 -43 27.5 -60t63.5 -17q42 0 60.5 13.5t25.5 41.5l98 418q6 23 6 42q0 21 -15 36.5t-45 15.5t-44 -16t-20 -48l-61 -355h-2l-64 355q-6 34 -22 49t-47 15q-25 0 -43.5 -15t-18.5 -41q0 -8 4 -25l1 -3z" />
    <glyph glyph-name="w" unicode="w" horiz-adv-x="648" 
d="M112 69q9 -44 27.5 -63t55.5 -19q69 0 81 67l46 249h2l43 -225q9 -49 27 -70t60 -21q41 0 57.5 17.5t24.5 58.5l82 398q4 19 4 32q0 28 -16 44.5t-41 16.5q-55 0 -65 -66l-50 -341h-2l-68 351q-6 30 -21.5 43t-35.5 13q-30 0 -43.5 -22.5t-22.5 -77.5l-51 -307h-2
l-50 335q-5 35 -20.5 53.5t-45.5 18.5q-28 0 -45 -16t-17 -46q0 -19 4 -36z" />
    <glyph glyph-name="x" unicode="x" horiz-adv-x="407" 
d="M35 92q-16 -29 -16 -49q0 -25 18.5 -40.5t46.5 -15.5q17 0 29 8.5t22 29.5l67 135l61 -134q17 -39 59 -39q28 0 47 16.5t19 40.5q0 12 -4 25t-17 36l-94 174l87 158q13 24 17.5 36.5t4.5 23.5q0 25 -17 41t-45 16q-37 0 -57 -41l-57 -119l-53 111q-13 29 -25.5 39
t-38.5 10q-25 0 -43.5 -15t-18.5 -42q0 -23 20 -62l86 -161z" />
    <glyph glyph-name="y" unicode="y" horiz-adv-x="426" 
d="M146 -44q4 -15 4 -30q0 -20 -9 -26t-29 -8h-1q-28 -3 -38 -14.5t-10 -31.5q0 -23 13 -38t44 -15q40 0 65 6t41 20.5t26.5 39t20.5 67.5l127 535q7 28 7 39q0 25 -17 39.5t-44 14.5q-31 0 -45.5 -17t-20.5 -50l-60 -357h-2l-71 377q-4 24 -21 35.5t-42 11.5
q-30 0 -47.5 -15.5t-17.5 -41.5q0 -6 4 -24q1 -5 1 -8z" />
    <glyph glyph-name="z" unicode="z" horiz-adv-x="426" 
d="M89 541q-61 0 -61 -54q0 -52 61 -52h147l-193 -330q-8 -15 -12.5 -27t-4.5 -27q0 -51 59 -51h254q61 0 61 54q0 52 -61 52h-157l193 330q13 23 17.5 35.5t4.5 27.5q0 42 -63 42h-245z" />
    <glyph glyph-name="braceleft" unicode="{" horiz-adv-x="314" 
d="M87 -46q0 -69 29.5 -101t88.5 -32h65q18 0 29 12t11 36t-11 36t-29 12h-22q-39 0 -39 59v197q0 33 -9.5 53.5t-24.5 30.5t-29 13.5t-32 5.5v2q16 2 31 5.5t30 13.5t24.5 30.5t9.5 53.5v197q0 59 39 59h22q18 0 29 12t11 36t-11 36t-29 12h-65q-59 0 -88.5 -32t-29.5 -101
v-208q0 -41 -11 -54t-31 -13q-19 0 -30 -14.5t-11 -33.5t11 -33.5t30 -14.5q20 0 31 -12.5t11 -54.5v-208z" />
    <glyph glyph-name="bar" unicode="|" horiz-adv-x="222" 
d="M54 56q0 -36 15.5 -54.5t41.5 -18.5t41.5 18.5t15.5 54.5v608q0 36 -15.5 54.5t-41.5 18.5t-41.5 -18.5t-15.5 -54.5v-608z" />
    <glyph glyph-name="braceright" unicode="}" horiz-adv-x="314" 
d="M227 600q0 69 -29.5 101t-88.5 32h-65q-18 0 -29 -12t-11 -36t11 -36t29 -12h22q39 0 39 -59v-197q0 -33 9.5 -53.5t24.5 -30.5t29 -13.5t32 -5.5v-2q-16 -1 -31 -5t-30 -14t-24.5 -30.5t-9.5 -53.5v-197q0 -59 -39 -59h-22q-18 0 -29 -12t-11 -36t11 -36t29 -12h65
q59 0 88.5 32t29.5 101v208q0 42 11 54.5t31 12.5t30.5 14.5t10.5 33.5t-10.5 33.5t-30.5 14.5t-31 13t-11 54v208z" />
    <glyph glyph-name="asciitilde" unicode="~" horiz-adv-x="600" 
d="M41 253q0 -20 10 -32t33 -12q13 0 23.5 5.5t24.5 16.5q17 13 30 19.5t33 6.5q21 0 78 -20q11 -4 20 -7q39 -13 66 -20t53 -7q66 0 106.5 33.5t40.5 76.5q0 20 -10 31.5t-33 11.5q-13 0 -23.5 -5.5t-23.5 -15.5q-17 -13 -30.5 -19.5t-33.5 -6.5q-16 0 -38 6.5t-56 18.5
l-5 2q-34 13 -64 20t-60 7q-62 0 -101.5 -34t-39.5 -76z" />
    <glyph glyph-name="quotesinglbase" unicode="&#x201a;" horiz-adv-x="222" 
d="M31 60q0 -26 19 -49.5t56 -23.5q12 0 21 1q-5 -24 -27 -45t-43 -28q-15 -5 -20.5 -11t-5.5 -17q0 -9 7.5 -17t19.5 -8q21 0 44.5 13t43.5 38t32.5 58.5t12.5 71.5q0 37 -21 66.5t-59 29.5q-35 0 -57.5 -23t-22.5 -56z" />
    <glyph glyph-name="florin" unicode="&#x192;" horiz-adv-x="480" 
d="M161 300l-25 -247q-4 -48 -14 -67.5t-32 -20.5q-35 -2 -47.5 -15.5t-12.5 -38.5q0 -26 21 -43t63 -17q69 0 103.5 43.5t41.5 117.5l30 288h76q23 0 35 13.5t12 29.5q0 17 -12 30t-35 13h-68l19 163q4 31 13.5 43.5t35.5 13.5q47 3 47 55q0 27 -18.5 43t-55.5 16
q-70 0 -104.5 -34.5t-42.5 -105.5l-22 -194h-72q-23 0 -35 -13t-12 -30q0 -16 12 -29.5t35 -13.5h64z" />
    <glyph glyph-name="quotedblbase" unicode="&#x201e;" horiz-adv-x="426" 
d="M36 60q0 -26 19 -49.5t56 -23.5q12 0 21 1q-5 -24 -27 -45t-43 -28q-15 -5 -20.5 -11t-5.5 -17q0 -9 7.5 -17t19.5 -8q21 0 44.5 13t43.5 38t32.5 58.5t12.5 71.5q0 37 -21 66.5t-59 29.5q-35 0 -57.5 -23t-22.5 -56zM230 60q0 -26 19 -49.5t56 -23.5q12 0 21 1
q-5 -24 -27 -45t-43 -28q-15 -5 -20.5 -11t-5.5 -17q0 -9 7.5 -17t19.5 -8q21 0 44.5 13t43.5 38t32.5 58.5t12.5 71.5q0 37 -21 66.5t-59 29.5q-35 0 -57.5 -23t-22.5 -56z" />
    <glyph glyph-name="ellipsis" unicode="&#x2026;" horiz-adv-x="1000" 
d="M91 63q0 -32 22 -54t54 -22t54 22t22 54t-22 54t-54 22t-54 -22t-22 -54zM424 63q0 -32 22 -54t54 -22t54 22t22 54t-22 54t-54 22t-54 -22t-22 -54zM757 63q0 -32 22 -54t54 -22t54 22t22 54t-22 54t-54 22t-54 -22t-22 -54z" />
    <glyph glyph-name="dagger" unicode="&#x2020;" horiz-adv-x="480" 
d="M179 380v-494q0 -36 16 -54.5t45 -18.5t45 18.5t16 54.5v494h102q30 0 44 14.5t14 38.5q0 25 -14 39t-44 14h-102v174q0 36 -16 54.5t-45 18.5t-45 -18.5t-16 -54.5v-174h-102q-29 0 -43.5 -14t-14.5 -39q0 -24 14.5 -38.5t43.5 -14.5h102z" />
    <glyph glyph-name="daggerdbl" unicode="&#x2021;" horiz-adv-x="480" 
d="M179 134h-102q-29 0 -43.5 -14t-14.5 -39q0 -24 14.5 -38.5t43.5 -14.5h102v-142q0 -36 16 -54.5t45 -18.5t45 18.5t16 54.5v142h102q30 0 44 14.5t14 38.5q0 25 -14 39t-44 14h-102v278h102q30 0 44 14.5t14 38.5q0 25 -14 39t-44 14h-102v142q0 36 -16 54.5t-45 18.5
t-45 -18.5t-16 -54.5v-142h-102q-29 0 -43.5 -14t-14.5 -39q0 -24 14.5 -38.5t43.5 -14.5h102v-278z" />
    <glyph glyph-name="circumflex" unicode="&#x2c6;" 
d="M4 661q-7 -10 -9.5 -16.5t-2.5 -14.5q0 -18 12.5 -29.5t31.5 -11.5q23 0 36 22l48 80l48 -80q14 -22 36 -22q20 0 32 11.5t12 29.5q0 8 -2.5 14.5t-9.5 16.5l-43 65q-16 24 -32.5 32.5t-40.5 8.5t-40.5 -8.5t-32.5 -32.5z" />
    <glyph glyph-name="perthousand" unicode="&#x2030;" horiz-adv-x="1000" 
d="M458 161q0 55 9 76.5t39 21.5t39 -21.5t9 -76.5t-9 -76.5t-39 -21.5t-39 21.5t-9 76.5zM362 168q0 -43 5.5 -75t20 -55.5t43.5 -37t75 -13.5t75 13t44 37.5t20 56t5 74.5q0 84 -33 125.5t-111 41.5t-111 -41.5t-33 -125.5zM792 161q0 55 9 76.5t39 21.5t39 -21.5t9 -76.5
t-9 -76.5t-39 -21.5t-39 21.5t-9 76.5zM696 168q0 -43 5.5 -75t20 -55.5t43.5 -37t75 -13.5t75 13t44 37.5t20 56t5 74.5q0 84 -33 125.5t-111 41.5t-111 -41.5t-33 -125.5zM112 546q0 55 9 76.5t39 21.5t39 -21.5t9 -76.5t-9 -76.5t-39 -21.5t-39 21.5t-9 76.5zM16 553
q0 -43 5.5 -75t20 -55.5t43.5 -37t75 -13.5t75 13t44 37.5t20 56t5 74.5q0 84 -33 125.5t-111 41.5t-111 -41.5t-33 -125.5zM576 684q10 17 10 30q0 12 -10.5 21.5t-26.5 9.5q-13 0 -23 -6t-20 -22l-413 -694q-10 -17 -10 -30q0 -12 10.5 -21.5t26.5 -9.5q13 0 23 6t20 22z
" />
    <glyph glyph-name="Scaron" unicode="&#x160;" horiz-adv-x="500" 
d="M177 809q16 -24 32.5 -32.5t40.5 -8.5t40.5 8.5t32.5 32.5l43 65q7 10 9.5 16.5t2.5 14.5q0 18 -12 29.5t-32 11.5q-22 0 -36 -22l-48 -80l-48 80q-13 22 -36 22q-19 0 -31.5 -11.5t-12.5 -29.5q0 -8 2.5 -14.5t9.5 -16.5zM261 280q38 -27 53 -49t15 -58q0 -37 -20 -60.5
t-58 -23.5t-58 24.5t-22 64.5q-3 47 -18.5 67t-47.5 20q-39 0 -53.5 -24.5t-14.5 -66.5q0 -19 7.5 -49.5t28 -63t61 -55.5t101.5 -23q113 0 170.5 53.5t57.5 148.5q0 74 -28.5 120t-88.5 85l-99 65q-45 30 -58.5 53.5t-13.5 53.5q0 32 20 50.5t51 18.5q30 0 49 -15.5
t23 -51.5q5 -42 17.5 -59t50.5 -17q30 0 48 17.5t18 50.5q0 30 -10.5 61.5t-34 58.5t-62.5 44t-92 17q-91 0 -151.5 -48.5t-60.5 -139.5q0 -58 20.5 -100t70.5 -78z" />
    <glyph glyph-name="guilsinglleft" unicode="&#x2039;" horiz-adv-x="259" 
d="M121 283l73 64q27 24 27 38q0 20 -13 32t-31 12q-17 0 -31 -14l-72 -65q-21 -19 -28.5 -33.5t-7.5 -33.5t7.5 -33.5t28.5 -33.5l72 -65q14 -14 31 -14q18 0 31 12t13 32q0 14 -27 38z" />
    <glyph glyph-name="OE" unicode="&#x152;" horiz-adv-x="796" 
d="M40 290q0 -98 16 -159.5t45.5 -93.5t68 -43t90.5 -11q38 0 69 9.5t49 28.5q6 -10 22 -15.5t49 -5.5h243q36 0 53 16.5t17 43.5t-17 43.5t-53 16.5h-218v194h203q36 0 53 16.5t17 43.5t-17 43.5t-53 16.5h-203v166h218q36 0 53 16.5t17 43.5t-17 43.5t-53 16.5h-266
q-16 0 -29 -7t-17 -17h-2v2q-19 20 -50 29.5t-68 9.5q-48 0 -86 -10t-68 -40.5t-48 -90t-18 -154.5v-152zM180 442q0 111 19 150t61 39t61 -39t19 -150v-152q0 -64 -5 -104.5t-14.5 -61t-24 -28t-36.5 -7.5t-36.5 7.5t-24 28t-14.5 61t-5 104.5v152z" />
    <glyph glyph-name="quoteleft" unicode="&#x2018;" horiz-adv-x="222" 
d="M31 552q0 -37 21 -66.5t59 -29.5q35 0 57.5 23t22.5 56q0 26 -19 49.5t-56 23.5q-12 0 -21 -1q6 24 28 45t42 28q15 5 20.5 11t5.5 17q0 9 -7.5 17t-19.5 8q-21 0 -44.5 -13t-43.5 -38t-32.5 -58.5t-12.5 -71.5z" />
    <glyph glyph-name="quoteright" unicode="&#x2019;" horiz-adv-x="222" 
d="M31 654q0 -26 19 -49.5t56 -23.5q12 0 21 1q-5 -24 -27 -45t-43 -28q-15 -5 -20.5 -11t-5.5 -17q0 -9 7.5 -17t19.5 -8q21 0 44.5 13.5t43.5 38t32.5 58t12.5 71.5q0 37 -21 66.5t-59 29.5q-35 0 -57.5 -23t-22.5 -56z" />
    <glyph glyph-name="quotedblleft" unicode="&#x201c;" horiz-adv-x="426" 
d="M230 552q0 -37 21 -66.5t59 -29.5q35 0 57.5 23t22.5 56q0 26 -19 49.5t-56 23.5q-12 0 -21 -1q6 24 28 45t42 28q15 5 20.5 11t5.5 17q0 9 -7.5 17t-19.5 8q-21 0 -44.5 -13t-43.5 -38t-32.5 -58.5t-12.5 -71.5zM36 552q0 -37 21 -66.5t59 -29.5q35 0 57.5 23t22.5 56
q0 26 -19 49.5t-56 23.5q-12 0 -21 -1q6 24 28 45t42 28q15 5 20.5 11t5.5 17q0 9 -7.5 17t-19.5 8q-21 0 -44.5 -13t-43.5 -38t-32.5 -58.5t-12.5 -71.5z" />
    <glyph glyph-name="quotedblright" unicode="&#x201d;" horiz-adv-x="426" 
d="M36 654q0 -26 19 -49.5t56 -23.5q12 0 21 1q-5 -24 -27 -45t-43 -28q-15 -5 -20.5 -11t-5.5 -17q0 -9 7.5 -17t19.5 -8q21 0 44.5 13.5t43.5 38t32.5 58t12.5 71.5q0 37 -21 66.5t-59 29.5q-35 0 -57.5 -23t-22.5 -56zM230 654q0 -26 19 -49.5t56 -23.5q12 0 21 1
q-5 -24 -27 -45t-43 -28q-15 -5 -20.5 -11t-5.5 -17q0 -9 7.5 -17t19.5 -8q21 0 44.5 13.5t43.5 38t32.5 58t12.5 71.5q0 37 -21 66.5t-59 29.5q-35 0 -57.5 -23t-22.5 -56z" />
    <glyph glyph-name="bullet" unicode="&#x2022;" horiz-adv-x="500" 
d="M70 360q0 -37 14 -69.5t39 -57.5t57.5 -39t69.5 -14t69.5 14t57.5 39t39 57.5t14 69.5t-14 69.5t-39 57.5t-57.5 39t-69.5 14t-69.5 -14t-57.5 -39t-39 -57.5t-14 -69.5z" />
    <glyph glyph-name="endash" unicode="&#x2013;" horiz-adv-x="500" 
d="M428 226q31 0 46.5 16.5t15.5 40.5t-15.5 40.5t-46.5 16.5h-356q-31 0 -46.5 -16.5t-15.5 -40.5t15.5 -40.5t46.5 -16.5h356z" />
    <glyph glyph-name="emdash" unicode="&#x2014;" horiz-adv-x="1000" 
d="M928 226q31 0 46.5 16.5t15.5 40.5t-15.5 40.5t-46.5 16.5h-856q-31 0 -46.5 -16.5t-15.5 -40.5t15.5 -40.5t46.5 -16.5h856z" />
    <glyph glyph-name="tilde" unicode="&#x2dc;" 
d="M-45 635q0 -18 12 -29t31 -11q9 0 16.5 4.5t17.5 12.5q20 17 33 17q4 0 17 -3t37 -8q27 -7 44.5 -11t24.5 -4q18 0 35.5 8t31.5 21.5t22 29.5t8 31q0 16 -11.5 26t-28.5 10q-14 0 -36 -17q-12 -9 -20 -13.5t-19 -4.5q-8 0 -35 9q-26 8 -44 12.5t-38 4.5q-16 0 -33.5 -7.5
t-32 -20.5t-23.5 -28t-9 -29z" />
    <glyph glyph-name="trademark" unicode="&#x2122;" horiz-adv-x="1000" 
d="M142 364q0 -35 19.5 -50t37.5 -15t37.5 15t19.5 50v265h67q25 0 36.5 14t11.5 32t-11.5 31.5t-36.5 13.5h-247q-25 0 -37 -13.5t-12 -31.5t12 -32t37 -14h66v-265zM828 364q0 -29 15.5 -47t37.5 -18t37.5 18t15.5 47v272q0 49 -25.5 69.5t-58.5 20.5q-76 0 -107 -77
l-65 -167l-65 167q-30 77 -107 77q-33 0 -58.5 -20.5t-25.5 -69.5v-272q0 -29 15.5 -47t37.5 -18t37.5 18t15.5 47v207h2l91 -219q21 -53 57 -53t57 53l91 219h2v-207z" />
    <glyph glyph-name="scaron" unicode="&#x161;" horiz-adv-x="407" 
d="M131 630q16 -24 32.5 -32.5t40.5 -8.5t40.5 8.5t32.5 32.5l43 65q7 10 9.5 16.5t2.5 14.5q0 18 -12 29.5t-32 11.5q-22 0 -36 -22l-48 -80l-48 80q-13 22 -36 22q-19 0 -31.5 -11.5t-12.5 -29.5q0 -8 2.5 -14.5t9.5 -16.5zM211 196q25 -19 34 -33.5t9 -34.5
q0 -50 -48 -50q-26 0 -38.5 12.5t-14.5 31.5q-3 40 -17 57.5t-47 17.5q-25 0 -41.5 -14.5t-16.5 -46.5q0 -26 8.5 -51.5t28 -48t52.5 -36t79 -13.5q78 0 127.5 41t49.5 118q0 51 -26 84.5t-90 81.5l-75 57q-27 20 -27 52q0 20 11.5 31t30.5 11q50 0 53 -55q3 -47 50 -47
q35 0 49.5 15.5t14.5 44.5q0 19 -8 41.5t-27 43.5t-51 34.5t-78 13.5q-76 0 -121.5 -37.5t-45.5 -108.5q0 -46 16 -76t66 -67z" />
    <glyph glyph-name="guilsinglright" unicode="&#x203a;" horiz-adv-x="259" 
d="M138 283l-73 -64q-27 -24 -27 -38q0 -20 13 -32t31 -12q17 0 31 14l72 65q21 19 28.5 33.5t7.5 33.5t-7.5 33.5t-28.5 33.5l-72 65q-14 14 -31 14q-18 0 -31 -12t-13 -32q0 -14 27 -38z" />
    <glyph glyph-name="oe" unicode="&#x153;" horiz-adv-x="667" 
d="M174 315q0 75 10.5 109t45.5 34t45 -30.5t10 -100.5v-113q0 -70 -10 -100.5t-45 -30.5t-45.5 34t-10.5 109v89zM407 340v45q0 34 12.5 53.5t40.5 19.5t40.5 -19.5t12.5 -53.5v-45h-106zM46 213q0 -113 39 -169.5t136 -56.5q33 0 64.5 11t50.5 32q46 -43 129 -43
q75 0 120.5 42t45.5 115q0 34 -16 47t-46 13q-28 0 -43.5 -14t-16.5 -51q-1 -22 -14.5 -39t-32.5 -17q-34 0 -44.5 29t-10.5 87v55h160q42 0 55 21.5t13 65.5q0 110 -38.5 161.5t-131.5 51.5q-62 0 -114 -41v-1q-26 20 -60 31t-67 11q-93 0 -135.5 -53.5t-42.5 -153.5v-134z
" />
    <glyph glyph-name="Ydieresis" unicode="&#x178;" horiz-adv-x="481" 
d="M81 845q0 -28 19.5 -47.5t47.5 -19.5t47.5 19.5t19.5 47.5t-19.5 47.5t-47.5 19.5t-47.5 -19.5t-19.5 -47.5zM267 845q0 -28 19.5 -47.5t47.5 -19.5t47.5 19.5t19.5 47.5t-19.5 47.5t-47.5 19.5t-47.5 -19.5t-19.5 -47.5zM174 56q0 -30 19.5 -49.5t47.5 -19.5t47.5 19.5
t19.5 49.5v247l147 335q10 22 10 41q0 21 -18 37.5t-46 16.5q-25 0 -41 -10.5t-28 -42.5l-91 -238l-86 228q-14 38 -28 50.5t-45 12.5q-28 0 -47 -15.5t-19 -45.5q0 -19 12 -47l146 -329v-240z" />
    <glyph glyph-name="exclamdown" unicode="&#xa1;" horiz-adv-x="278" 
d="M72 -122q0 -33 17 -51.5t50 -18.5q34 0 50.5 18.5t16.5 51.5v154q0 29 -4 70l-19 212q-2 29 -11 41t-33 12t-33 -12t-11 -41l-19 -212q-4 -41 -4 -70v-154zM63 478q0 -32 22 -54t54 -22t54 22t22 54t-22 54t-54 22t-54 -22t-22 -54z" />
    <glyph glyph-name="cent" unicode="&#xa2;" horiz-adv-x="480" 
d="M183 287q0 58 2.5 91t10 50.5t21 23.5t38.5 6q5 0 6 -1l-75 -296h-2q-1 11 -1 38v88zM61 221q0 -87 16.5 -139.5t67.5 -75.5l-17 -69q-4 -15 -4 -27q0 -20 18 -20q20 0 27 28l19 73q21 -4 52 -4q42 0 75.5 7.5t58 26t38 52.5t13.5 85q0 33 -12.5 51.5t-43.5 18.5
q-28 0 -42.5 -18.5t-15.5 -61.5q-1 -32 -15.5 -48.5t-46.5 -16.5q-24 0 -36 9l88 348q9 -11 12 -34q6 -41 16.5 -54.5t41.5 -13.5q27 0 40 17t13 43q0 64 -25.5 99t-71.5 47l13 50q4 13 4 23q0 6 -5.5 11t-11.5 5q-21 0 -31 -37l-11 -44q-14 2 -40 2q-61 0 -98 -17.5
t-55.5 -48.5t-24.5 -71t-6 -97v-99z" />
    <glyph glyph-name="sterling" unicode="&#xa3;" horiz-adv-x="480" 
d="M217 386l-1 3q-19 39 -28.5 68.5t-9.5 65.5q0 40 20 68t59 28q61 0 71 -70q5 -33 18.5 -48.5t43.5 -15.5q66 0 66 65q0 71 -50.5 120.5t-143.5 49.5q-92 0 -152 -54t-60 -143q0 -39 9 -69t26 -68h-16q-23 0 -35 -13t-12 -30q0 -16 12 -29.5t35 -13.5h54q10 -33 10 -75
q0 -39 -17 -66t-47 -58q-18 -18 -26 -29t-8 -23q0 -22 11.5 -38.5t29.5 -16.5q20 0 48 10q33 11 54 11q25 0 79 -13q61 -15 93 -15q50 0 85 18t35 53q0 23 -13.5 35.5t-33.5 12.5q-14 0 -33 -6q-21 -7 -38 -7q-18 0 -47 8q-17 5 -31 7.5t-33 2.5q-37 0 -78 -15l-2 2
q46 38 70 81t24 79q0 20 -8 42h81q23 0 35 13.5t12 29.5q0 17 -12 30t-35 13h-111z" />
    <glyph glyph-name="currency" unicode="&#xa4;" horiz-adv-x="480" 
d="M16 200q-14 -13 -14 -32t14.5 -34t33.5 -15q23 0 39 16l18 18q57 -40 133 -40q77 0 132 40l18 -18q18 -16 39 -16q19 0 33.5 15t14.5 34t-14 32l-23 20q40 62 40 133t-40 133l23 20q14 13 14 32t-14.5 34t-33.5 15q-23 0 -39 -16l-18 -18q-55 40 -132 40q-76 0 -133 -40
l-18 18q-15 16 -39 16q-19 0 -33.5 -15t-14.5 -34t14 -32l23 -20q-39 -60 -39 -133t39 -133zM122 353q0 60 31.5 93t86.5 33t86.5 -33t31.5 -93t-31.5 -93t-86.5 -33t-86.5 33t-31.5 93z" />
    <glyph glyph-name="yen" unicode="&#xa5;" horiz-adv-x="480" 
d="M176 216h-81q-49 0 -49 -40q0 -41 49 -41h81v-80q0 -30 19 -49t45 -19t45 19t19 49v80h93q49 0 49 41q0 40 -49 40h-93v64h93q49 0 49 41q0 40 -49 40h-65l119 266q10 22 10 40q0 22 -17.5 37.5t-46.5 15.5q-23 0 -36.5 -10.5t-25.5 -42.5l-95 -257l-95 257
q-12 32 -25.5 42.5t-36.5 10.5q-29 0 -46.5 -15.5t-17.5 -37.5q0 -18 10 -40l119 -266h-53q-49 0 -49 -40q0 -41 49 -41h81v-64z" />
    <glyph glyph-name="brokenbar" unicode="&#xa6;" horiz-adv-x="222" 
d="M54 56q0 -36 15.5 -54.5t41.5 -18.5t41.5 18.5t15.5 54.5v167q0 36 -15.5 54.5t-41.5 18.5t-41.5 -18.5t-15.5 -54.5v-167zM54 497q0 -36 15.5 -54.5t41.5 -18.5t41.5 18.5t15.5 54.5v167q0 36 -15.5 54.5t-41.5 18.5t-41.5 -18.5t-15.5 -54.5v-167z" />
    <glyph glyph-name="section" unicode="&#xa7;" horiz-adv-x="481" 
d="M227 74q38 -28 54 -50t16 -47q0 -27 -15.5 -44.5t-44.5 -17.5q-54 0 -67 54q-6 27 -20 38t-36 11q-62 0 -62 -60q0 -22 10 -46t31 -45t56 -34.5t82 -13.5q83 0 135.5 45.5t52.5 131.5q0 31 -9 55t-30 49l-12 14q37 25 58 61.5t21 80.5q0 50 -24.5 88t-84.5 85l-89 68
q-32 24 -46 44t-14 41q0 22 13.5 40.5t45.5 18.5q19 0 31 -9t20 -34q9 -26 22.5 -36.5t33.5 -10.5q27 0 45 16t18 41q0 51 -44 90t-130 39q-47 0 -81.5 -15t-55.5 -39t-30.5 -53.5t-9.5 -59.5q0 -29 11 -58.5t33 -52.5q-38 -24 -57.5 -63t-19.5 -86q0 -46 22.5 -85t71.5 -77
zM193 261q-24 19 -34.5 34.5t-10.5 33.5q0 39 36 60l87 -69q35 -27 48.5 -45.5t13.5 -39.5q0 -14 -9 -29t-27 -27z" />
    <glyph glyph-name="dieresis" unicode="&#xa8;" 
d="M-40 666q0 -28 19.5 -47.5t47.5 -19.5t47.5 19.5t19.5 47.5t-19.5 47.5t-47.5 19.5t-47.5 -19.5t-19.5 -47.5zM146 666q0 -28 19.5 -47.5t47.5 -19.5t47.5 19.5t19.5 47.5t-19.5 47.5t-47.5 19.5t-47.5 -19.5t-19.5 -47.5z" />
    <glyph glyph-name="copyright" unicode="&#xa9;" horiz-adv-x="800" 
d="M216 363q0 -46 14.5 -85.5t41 -69t63.5 -46t81 -16.5q38 0 69.5 14t53.5 35.5t33.5 43.5t11.5 38q0 20 -11.5 32t-30.5 12q-17 0 -30 -10.5t-26 -34.5q-9 -16 -28.5 -27.5t-42.5 -11.5q-43 0 -68 35.5t-25 92.5q0 58 24.5 91.5t66.5 33.5q58 0 72 -37q18 -43 53 -43
q20 0 31 14t11 35q0 20 -11.5 41.5t-33 40t-53 29.5t-68.5 11q-90 0 -144 -61.5t-54 -156.5zM23 360q0 -77 29 -145.5t81.5 -121t121 -81.5t145.5 -29t145.5 29t121 81.5t81.5 121t29 145.5t-29 145.5t-81.5 121t-121 81.5t-145.5 29t-145.5 -29t-121 -81.5t-81.5 -121
t-29 -145.5zM137 360q0 59 19.5 109.5t55 86.5t83.5 55.5t105 19.5t105.5 -19.5t83.5 -55.5t54.5 -86.5t19.5 -109.5t-19.5 -109.5t-54.5 -86.5t-83.5 -55.5t-105.5 -19.5t-105 19.5t-83.5 55.5t-55 86.5t-19.5 109.5z" />
    <glyph glyph-name="ordfeminine" unicode="&#xaa;" horiz-adv-x="289" 
d="M273 624q0 23 -4.5 39.5t-18 29.5t-40.5 20t-72 7q-59 0 -92.5 -23t-33.5 -67q0 -15 13 -22.5t28 -7.5q27 0 40 6t15 17q5 39 39 39q14 0 22 -9t8 -21q0 -22 -25 -33l-84 -34q-30 -12 -43 -35.5t-13 -62.5q0 -44 22.5 -65.5t59.5 -21.5q64 0 85 41h2v1q0 -23 14 -32.5
t43 -9.5q39 0 39 29q0 4 -1 16q-3 21 -3 33v166zM177 501q0 -25 -11 -41t-30 -16q-28 0 -28 36q0 21 8 32.5t34 26.5l27 16v-54z" />
    <glyph glyph-name="guillemotleft" unicode="&#xab;" horiz-adv-x="426" 
d="M293 283l73 64q27 24 27 38q0 20 -13 32t-31 12q-17 0 -31 -14l-72 -65q-21 -19 -28.5 -33.5t-7.5 -33.5t7.5 -33.5t28.5 -33.5l72 -65q14 -14 31 -14q18 0 31 12t13 32q0 14 -27 38zM116 283l73 64q27 24 27 38q0 20 -13 32t-31 12q-17 0 -31 -14l-72 -65
q-21 -19 -28.5 -33.5t-7.5 -33.5t7.5 -33.5t28.5 -33.5l72 -65q14 -14 31 -14q18 0 31 12t13 32q0 14 -27 38z" />
    <glyph glyph-name="logicalnot" unicode="&#xac;" horiz-adv-x="600" 
d="M583 397q0 25 -19.5 41t-50.5 16h-426q-31 0 -50.5 -15.5t-19.5 -37.5t19.5 -37.5t50.5 -15.5h390v-166q0 -31 15.5 -50.5t37.5 -19.5t37.5 19.5t15.5 50.5v215z" />
    <glyph glyph-name="minus" unicode="&#xad;" horiz-adv-x="600" 
d="M87 336q-31 0 -50.5 -15.5t-19.5 -37.5t19.5 -37.5t50.5 -15.5h426q31 0 50.5 15.5t19.5 37.5t-19.5 37.5t-50.5 15.5h-426z" />
    <glyph glyph-name="minus" unicode="&#x2212;" horiz-adv-x="600" 
d="M87 336q-31 0 -50.5 -15.5t-19.5 -37.5t19.5 -37.5t50.5 -15.5h426q31 0 50.5 15.5t19.5 37.5t-19.5 37.5t-50.5 15.5h-426z" />
    <glyph glyph-name="registered" unicode="&#xae;" horiz-adv-x="800" 
d="M251 215q0 -22 13.5 -34t32.5 -12t32 12t13 34v117h30l93 -129q14 -20 24 -27t27 -7q23 0 35 12t12 30q0 16 -8 26l-69 95q31 3 57 33t26 81q0 67 -36.5 94t-109.5 27h-126q-19 0 -32.5 -12t-13.5 -33v-307zM342 497h73q25 0 39 -10t14 -38t-14 -37.5t-39 -9.5h-73v95z
M23 360q0 -77 29 -145.5t81.5 -121t121 -81.5t145.5 -29t145.5 29t121 81.5t81.5 121t29 145.5t-29 145.5t-81.5 121t-121 81.5t-145.5 29t-145.5 -29t-121 -81.5t-81.5 -121t-29 -145.5zM137 360q0 59 19.5 109.5t55 86.5t83.5 55.5t105 19.5t105.5 -19.5t83.5 -55.5
t54.5 -86.5t19.5 -109.5t-19.5 -109.5t-54.5 -86.5t-83.5 -55.5t-105.5 -19.5t-105 19.5t-83.5 55.5t-55 86.5t-19.5 109.5z" />
    <glyph glyph-name="macron" unicode="&#xaf;" 
d="M1 707q-49 0 -49 -43t49 -43h238q49 0 49 43t-49 43h-238z" />
    <glyph glyph-name="degree" unicode="&#xb0;" horiz-adv-x="400" 
d="M57 577q0 -60 41.5 -101.5t101.5 -41.5t101.5 41.5t41.5 101.5t-41.5 101.5t-101.5 41.5t-101.5 -41.5t-41.5 -101.5zM133 577q0 28 19.5 47.5t47.5 19.5t47.5 -19.5t19.5 -47.5t-19.5 -47.5t-47.5 -19.5t-47.5 19.5t-19.5 47.5z" />
    <glyph glyph-name="plusminus" unicode="&#xb1;" horiz-adv-x="600" 
d="M247 417h-160q-31 0 -50.5 -15.5t-19.5 -37.5t19.5 -37.5t50.5 -15.5h160v-79q0 -31 15 -50.5t38 -19.5t38 19.5t15 50.5v79h160q31 0 50.5 15.5t19.5 37.5t-19.5 37.5t-50.5 15.5h-160v79q0 31 -15 50.5t-38 19.5t-38 -19.5t-15 -50.5v-79zM87 106q-31 0 -50.5 -15.5
t-19.5 -37.5t19.5 -37.5t50.5 -15.5h426q31 0 50.5 15.5t19.5 37.5t-19.5 37.5t-50.5 15.5h-426z" />
    <glyph glyph-name="twosuperior" unicode="&#xb2;" horiz-adv-x="312" 
d="M249 287q24 0 35.5 8.5t11.5 29.5q0 22 -11.5 30t-35.5 8h-128q6 20 20 39.5t40 43.5l54 49q57 53 57 117q0 108 -141 108q-62 0 -95.5 -30.5t-33.5 -84.5q0 -22 9.5 -35t35.5 -13q43 0 46 34q2 29 11.5 44t28.5 15q17 0 27.5 -14.5t10.5 -35.5q0 -22 -12 -41.5
t-45 -50.5l-30 -28q-48 -45 -68 -87t-20 -72q0 -34 39 -34h194z" />
    <glyph glyph-name="threesuperior" unicode="&#xb3;" horiz-adv-x="316" 
d="M154 280q79 0 114.5 34t35.5 99q0 44 -14.5 69t-51.5 37v2q28 8 42 31t14 57q0 51 -33.5 81t-109.5 30q-67 0 -99 -27t-32 -71q0 -17 10.5 -26.5t32.5 -9.5q42 0 48 33q7 37 42 37q21 0 30.5 -13.5t9.5 -32.5q0 -31 -10.5 -44t-37.5 -18q-25 -4 -33 -10.5t-8 -22.5
q0 -15 9.5 -22t35.5 -9q29 -2 41.5 -16.5t12.5 -55.5q0 -30 -11 -49t-36 -19q-23 0 -34.5 14t-13.5 38q-3 42 -50 42q-24 0 -35 -12.5t-11 -35.5q0 -17 6 -35t21 -35t43.5 -28.5t71.5 -11.5z" />
    <glyph glyph-name="acute" unicode="&#xb4;" 
d="M66 666q-15 -15 -15 -33q0 -19 11.5 -31.5t30.5 -12.5q18 0 36 16l79 73q11 10 18 22t7 24q0 19 -13.5 31t-30.5 12q-13 0 -21 -3t-18 -13z" />
    <glyph glyph-name="mu" unicode="&#xb5;" horiz-adv-x="463" 
d="M54 -134q0 -36 16 -54.5t45 -18.5t45 18.5t16 54.5v130h2q3 -9 16 -9q27 0 55 23q24 20 36 47h2q0 -70 61 -70q29 0 45 18.5t16 54.5v421q0 36 -16 54.5t-45 18.5t-45 -18.5t-16 -54.5v-291q0 -97 -64 -97q-47 0 -47 57v331q0 36 -16 54.5t-45 18.5t-45 -18.5t-16 -54.5
v-615z" />
    <glyph glyph-name="paragraph" unicode="&#xb6;" horiz-adv-x="481" 
d="M162 -104q0 -27 13.5 -43.5t36.5 -16.5q24 0 37.5 16.5t13.5 43.5v733h77v-733q0 -27 13.5 -43.5t37.5 -16.5q23 0 36.5 16.5t13.5 43.5v764q0 27 -13.5 43.5t-35.5 16.5h-211q-30 0 -58 -8t-51.5 -28t-37.5 -55t-14 -87q0 -78 41 -124.5t101 -46.5v-475z" />
    <glyph glyph-name="periodcentered" unicode="&#xb7;" 
d="M44 305q0 -32 22 -54t54 -22t54 22t22 54t-22 54t-54 22t-54 -22t-22 -54z" />
    <glyph glyph-name="periodcentered" unicode="&#x2219;" 
d="M44 305q0 -32 22 -54t54 -22t54 22t22 54t-22 54t-54 22t-54 -22t-22 -54z" />
    <glyph glyph-name="cedilla" unicode="&#xb8;" 
d="M151 0h-52l-38 -60q-11 -17 -11 -23t5.5 -11t13.5 -5q4 0 15 1q11 2 16 2q14 0 24 -9.5t10 -22.5q0 -18 -13 -27t-31 -9q-7 0 -23 5q-18 6 -28 6q-20 0 -20 -25q0 -17 22.5 -27.5t55.5 -10.5q50 0 84 25t34 65q0 36 -23.5 53t-63.5 17h-13z" />
    <glyph glyph-name="onesuperior" unicode="&#xb9;" 
d="M102 580v-258q0 -19 14 -30.5t36 -11.5q23 0 37 11.5t14 30.5v365q0 17 -9 25t-26 8q-21 0 -29 -5t-20 -26q-12 -22 -31 -33.5t-56 -16.5q-27 -4 -27 -31q0 -15 10 -21.5t27 -6.5h60z" />
    <glyph glyph-name="ordmasculine" unicode="&#xba;" horiz-adv-x="289" 
d="M181 518q0 -44 -8 -59t-29 -15t-28.5 15t-7.5 59v63q0 45 7.5 60t28.5 15t29 -15t8 -60v-63zM277 594q0 59 -29 92.5t-104 33.5q-40 0 -65.5 -9.5t-40.5 -27.5q-26 -30 -26 -89v-88q0 -28 6 -50.5t20.5 -39.5t40.5 -26.5t65 -9.5t65.5 9.5t41 26.5t20.5 39.5t6 50.5v88z
" />
    <glyph glyph-name="guillemotright" unicode="&#xbb;" horiz-adv-x="426" 
d="M133 283l-73 -64q-27 -24 -27 -38q0 -20 13 -32t31 -12q17 0 31 14l72 65q21 19 28.5 33.5t7.5 33.5t-7.5 33.5t-28.5 33.5l-72 65q-14 14 -31 14q-18 0 -31 -12t-13 -32q0 -14 27 -38zM310 283l-73 -64q-27 -24 -27 -38q0 -20 13 -32t31 -12q17 0 31 14l72 65
q21 19 28.5 33.5t7.5 33.5t-7.5 33.5t-28.5 33.5l-72 65q-14 14 -31 14q-18 0 -31 -12t-13 -32q0 -14 27 -38z" />
    <glyph glyph-name="onequarter" unicode="&#xbc;" horiz-adv-x="740" 
d="M582 144h-88l86 171h2v-171zM582 31q0 -44 45 -44q46 0 46 44v37h15q15 0 25.5 9t10.5 29t-10.5 29t-25.5 9h-15v245q0 17 -12.5 27.5t-41.5 10.5q-27 0 -40 -6t-20 -18l-130 -248q-13 -25 -13 -48q0 -39 51 -39h115v-37zM169 22q-6 -13 -6 -29q0 -12 9 -21.5t26 -9.5
q31 0 43 26l303 697q6 14 6 29q0 12 -9 21.5t-26 9.5q-31 0 -43 -26zM95 580v-258q0 -19 14 -30.5t36 -11.5q23 0 37 11.5t14 30.5v365q0 17 -9 25t-26 8q-21 0 -29 -5t-20 -26q-12 -22 -31 -33.5t-56 -16.5q-27 -4 -27 -31q0 -15 10 -21.5t27 -6.5h60z" />
    <glyph glyph-name="onehalf" unicode="&#xbd;" horiz-adv-x="740" 
d="M165 22q-6 -13 -6 -29q0 -12 9 -21.5t26 -9.5q31 0 43 26l303 697q6 14 6 29q0 12 -9 21.5t-26 9.5q-31 0 -43 -26zM95 580v-258q0 -19 14 -30.5t36 -11.5q23 0 37 11.5t14 30.5v365q0 17 -9 25t-26 8q-21 0 -29 -5t-20 -26q-12 -22 -31 -33.5t-56 -16.5q-27 -4 -27 -31
q0 -15 10 -21.5t27 -6.5h60zM677 0q24 0 35.5 8.5t11.5 29.5q0 22 -11.5 30t-35.5 8h-128q6 20 20 39.5t40 43.5l54 49q57 53 57 117q0 108 -141 108q-62 0 -95.5 -30.5t-33.5 -84.5q0 -22 9.5 -35t35.5 -13q43 0 46 34q2 29 11.5 44t28.5 15q17 0 27.5 -14.5t10.5 -35.5
q0 -22 -12 -41.5t-45 -50.5l-30 -28q-48 -45 -68 -87t-20 -72q0 -34 39 -34h194z" />
    <glyph glyph-name="threequarters" unicode="&#xbe;" horiz-adv-x="740" 
d="M582 144h-88l86 171h2v-171zM582 31q0 -44 45 -44q46 0 46 44v37h15q15 0 25.5 9t10.5 29t-10.5 29t-25.5 9h-15v245q0 17 -12.5 27.5t-41.5 10.5q-27 0 -40 -6t-20 -18l-130 -248q-13 -25 -13 -48q0 -39 51 -39h115v-37zM201 22q-6 -13 -6 -29q0 -12 9 -21.5t26 -9.5
q31 0 43 26l303 697q6 14 6 29q0 12 -9 21.5t-26 9.5q-31 0 -43 -26zM153 280q79 0 114.5 34t35.5 99q0 44 -14.5 69t-51.5 37v2q28 8 42 31t14 57q0 51 -33.5 81t-109.5 30q-67 0 -99 -27t-32 -71q0 -17 10.5 -26.5t32.5 -9.5q42 0 48 33q7 37 42 37q21 0 30.5 -13.5
t9.5 -32.5q0 -31 -10.5 -44t-37.5 -18q-25 -4 -33 -10.5t-8 -22.5q0 -15 9.5 -22t35.5 -9q29 -2 41.5 -16.5t12.5 -55.5q0 -30 -11 -49t-36 -19q-23 0 -34.5 14t-13.5 38q-3 42 -50 42q-24 0 -35 -12.5t-11 -35.5q0 -17 6 -35t21 -35t43.5 -28.5t71.5 -11.5z" />
    <glyph glyph-name="questiondown" unicode="&#xbf;" horiz-adv-x="481" 
d="M134 164q-39 -43 -57 -82t-18 -87q0 -187 195 -187q82 0 129 45t47 116q0 28 -16.5 44.5t-43.5 16.5q-29 0 -43 -14.5t-19 -51.5q-4 -25 -20 -40t-39 -15q-30 0 -46 21.5t-16 55.5q0 30 12 60.5t45 68.5l36 41q29 33 43.5 72.5t14.5 75.5q0 29 -16 46t-41 17
q-26 0 -40.5 -14.5t-16.5 -37.5q-4 -37 -15.5 -59.5t-45.5 -59.5zM205 478q0 -32 22 -54t54 -22t54 22t22 54t-22 54t-54 22t-54 -22t-22 -54z" />
    <glyph glyph-name="Agrave" unicode="&#xc0;" horiz-adv-x="519" 
d="M257 784q18 -16 36 -16q19 0 30.5 12.5t11.5 31.5q0 18 -15 33l-84 85q-10 10 -18 13t-21 3q-17 0 -30.5 -12t-13.5 -31q0 -12 7 -24t18 -22zM338 180l21 -106q10 -50 27 -68.5t54 -18.5q28 0 47 15.5t19 46.5q0 8 -2.5 20.5t-7.5 34.5l-127 535q-13 55 -36 74.5
t-74 19.5q-55 0 -76 -19t-34 -75l-128 -539q-3 -14 -5.5 -29.5t-2.5 -25.5q0 -26 16.5 -42t46.5 -16q32 0 47.5 14.5t22.5 48.5l27 130h165zM195 286l61 299h2l59 -299h-122z" />
    <glyph glyph-name="Aacute" unicode="&#xc1;" horiz-adv-x="519" 
d="M212 845q-15 -15 -15 -33q0 -19 11.5 -31.5t30.5 -12.5q18 0 36 16l79 73q11 10 18 22t7 24q0 19 -13.5 31t-30.5 12q-13 0 -21 -3t-18 -13zM338 180l21 -106q10 -50 27 -68.5t54 -18.5q28 0 47 15.5t19 46.5q0 8 -2.5 20.5t-7.5 34.5l-127 535q-13 55 -36 74.5t-74 19.5
q-55 0 -76 -19t-34 -75l-128 -539q-3 -14 -5.5 -29.5t-2.5 -25.5q0 -26 16.5 -42t46.5 -16q32 0 47.5 14.5t22.5 48.5l27 130h165zM195 286l61 299h2l59 -299h-122z" />
    <glyph glyph-name="Acircumflex" unicode="&#xc2;" horiz-adv-x="519" 
d="M150 840q-7 -10 -9.5 -16.5t-2.5 -14.5q0 -18 12.5 -29.5t31.5 -11.5q23 0 36 22l48 80l48 -80q14 -22 36 -22q20 0 32 11.5t12 29.5q0 8 -2.5 14.5t-9.5 16.5l-43 65q-16 24 -32.5 32.5t-40.5 8.5t-40.5 -8.5t-32.5 -32.5zM338 180l21 -106q10 -50 27 -68.5t54 -18.5
q28 0 47 15.5t19 46.5q0 8 -2.5 20.5t-7.5 34.5l-127 535q-13 55 -36 74.5t-74 19.5q-55 0 -76 -19t-34 -75l-128 -539q-3 -14 -5.5 -29.5t-2.5 -25.5q0 -26 16.5 -42t46.5 -16q32 0 47.5 14.5t22.5 48.5l27 130h165zM195 286l61 299h2l59 -299h-122z" />
    <glyph glyph-name="Atilde" unicode="&#xc3;" horiz-adv-x="519" 
d="M101 814q0 -18 12 -29t31 -11q9 0 16.5 4.5t17.5 12.5q20 17 33 17q4 0 17 -3t37 -8q27 -7 44.5 -11t24.5 -4q18 0 35.5 8t31.5 21.5t22 29.5t8 31q0 16 -11.5 26t-28.5 10q-14 0 -36 -17q-12 -9 -20 -13.5t-19 -4.5q-8 0 -35 9q-26 8 -44 12.5t-38 4.5q-16 0 -33.5 -7.5
t-32 -20.5t-23.5 -28t-9 -29zM338 180l21 -106q10 -50 27 -68.5t54 -18.5q28 0 47 15.5t19 46.5q0 8 -2.5 20.5t-7.5 34.5l-127 535q-13 55 -36 74.5t-74 19.5q-55 0 -76 -19t-34 -75l-128 -539q-3 -14 -5.5 -29.5t-2.5 -25.5q0 -26 16.5 -42t46.5 -16q32 0 47.5 14.5
t22.5 48.5l27 130h165zM195 286l61 299h2l59 -299h-122z" />
    <glyph glyph-name="Adieresis" unicode="&#xc4;" horiz-adv-x="519" 
d="M106 845q0 -28 19.5 -47.5t47.5 -19.5t47.5 19.5t19.5 47.5t-19.5 47.5t-47.5 19.5t-47.5 -19.5t-19.5 -47.5zM292 845q0 -28 19.5 -47.5t47.5 -19.5t47.5 19.5t19.5 47.5t-19.5 47.5t-47.5 19.5t-47.5 -19.5t-19.5 -47.5zM338 180l21 -106q10 -50 27 -68.5t54 -18.5
q28 0 47 15.5t19 46.5q0 8 -2.5 20.5t-7.5 34.5l-127 535q-13 55 -36 74.5t-74 19.5q-55 0 -76 -19t-34 -75l-128 -539q-3 -14 -5.5 -29.5t-2.5 -25.5q0 -26 16.5 -42t46.5 -16q32 0 47.5 14.5t22.5 48.5l27 130h165zM195 286l61 299h2l59 -299h-122z" />
    <glyph glyph-name="Aring" unicode="&#xc5;" horiz-adv-x="519" 
d="M154 859q0 -44 31 -75t75 -31t75 31t31 75t-31 75t-75 31t-75 -31t-31 -75zM212 859q0 20 14 34t34 14t34 -14t14 -34t-14 -34t-34 -14t-34 14t-14 34zM338 180l21 -106q10 -50 27 -68.5t54 -18.5q28 0 47 15.5t19 46.5q0 8 -2.5 20.5t-7.5 34.5l-127 535
q-13 55 -36 74.5t-74 19.5q-55 0 -76 -19t-34 -75l-128 -539q-3 -14 -5.5 -29.5t-2.5 -25.5q0 -26 16.5 -42t46.5 -16q32 0 47.5 14.5t22.5 48.5l27 130h165zM195 286l61 299h2l59 -299h-122z" />
    <glyph glyph-name="AE" unicode="&#xc6;" horiz-adv-x="778" 
d="M475 600h199q36 0 53 16.5t17 43.5t-17 43.5t-53 16.5h-422q-30 0 -47 -13.5t-25 -40.5l-167 -585v-1q-7 -25 -7 -35q0 -22 18 -40t49 -18t46 18.5t25 53.5l33 121h164v-108q0 -72 72 -72h261q36 0 53 16.5t17 43.5t-17 43.5t-53 16.5h-199v194h187q36 0 53 16.5t17 43.5
t-17 43.5t-53 16.5h-187v166zM293 606h48v-320h-135z" />
    <glyph glyph-name="Ccedilla" unicode="&#xc7;" horiz-adv-x="500" 
d="M201 -60q-11 -17 -11 -23t5.5 -11t13.5 -5q4 0 15 1q11 2 16 2q14 0 24 -9.5t10 -22.5q0 -18 -13 -27t-31 -9q-7 0 -23 5q-18 6 -28 6q-20 0 -20 -25q0 -17 22.5 -27.5t55.5 -10.5q50 0 84 25t34 65q0 36 -23.5 53t-63.5 17h-13l26 39q91 6 142 57.5t51 152.5
q0 37 -17 58t-51 21q-41 0 -55 -23.5t-17 -86.5q-1 -31 -21 -52t-46 -21q-57 0 -72 56.5t-15 203.5v40q0 80 5.5 128t16.5 72.5t27.5 33t41.5 8.5q52 0 62 -73q6 -47 20 -64t52 -17q36 0 52 21t16 59q0 78 -53 129t-149 51q-62 0 -105.5 -16t-71 -53t-41 -99.5t-13.5 -158.5
v-114q0 -66 4.5 -113.5t22.5 -91.5t57.5 -73t104.5 -35z" />
    <glyph glyph-name="Egrave" unicode="&#xc8;" horiz-adv-x="500" 
d="M253 784q18 -16 36 -16q19 0 30.5 12.5t11.5 31.5q0 18 -15 33l-84 85q-10 10 -18 13t-21 3q-17 0 -30.5 -12t-13.5 -31q0 -12 7 -24t18 -22zM190 314h186q36 0 53 16.5t17 43.5t-17 43.5t-53 16.5h-186v166h199q36 0 53 16.5t17 43.5t-17 43.5t-53 16.5h-261
q-72 0 -72 -72v-576q0 -72 72 -72h268q36 0 53 16.5t17 43.5t-17 43.5t-53 16.5h-206v194z" />
    <glyph glyph-name="Eacute" unicode="&#xc9;" horiz-adv-x="500" 
d="M208 845q-15 -15 -15 -33q0 -19 11.5 -31.5t30.5 -12.5q18 0 36 16l79 73q11 10 18 22t7 24q0 19 -13.5 31t-30.5 12q-13 0 -21 -3t-18 -13zM190 314h186q36 0 53 16.5t17 43.5t-17 43.5t-53 16.5h-186v166h199q36 0 53 16.5t17 43.5t-17 43.5t-53 16.5h-261
q-72 0 -72 -72v-576q0 -72 72 -72h268q36 0 53 16.5t17 43.5t-17 43.5t-53 16.5h-206v194z" />
    <glyph glyph-name="Ecircumflex" unicode="&#xca;" horiz-adv-x="500" 
d="M146 840q-7 -10 -9.5 -16.5t-2.5 -14.5q0 -18 12.5 -29.5t31.5 -11.5q23 0 36 22l48 80l48 -80q14 -22 36 -22q20 0 32 11.5t12 29.5q0 8 -2.5 14.5t-9.5 16.5l-43 65q-16 24 -32.5 32.5t-40.5 8.5t-40.5 -8.5t-32.5 -32.5zM190 314h186q36 0 53 16.5t17 43.5t-17 43.5
t-53 16.5h-186v166h199q36 0 53 16.5t17 43.5t-17 43.5t-53 16.5h-261q-72 0 -72 -72v-576q0 -72 72 -72h268q36 0 53 16.5t17 43.5t-17 43.5t-53 16.5h-206v194z" />
    <glyph glyph-name="Edieresis" unicode="&#xcb;" horiz-adv-x="500" 
d="M102 845q0 -28 19.5 -47.5t47.5 -19.5t47.5 19.5t19.5 47.5t-19.5 47.5t-47.5 19.5t-47.5 -19.5t-19.5 -47.5zM288 845q0 -28 19.5 -47.5t47.5 -19.5t47.5 19.5t19.5 47.5t-19.5 47.5t-47.5 19.5t-47.5 -19.5t-19.5 -47.5zM190 314h186q36 0 53 16.5t17 43.5t-17 43.5
t-53 16.5h-186v166h199q36 0 53 16.5t17 43.5t-17 43.5t-53 16.5h-261q-72 0 -72 -72v-576q0 -72 72 -72h268q36 0 53 16.5t17 43.5t-17 43.5t-53 16.5h-206v194z" />
    <glyph glyph-name="Igrave" unicode="&#xcc;" horiz-adv-x="258" 
d="M126 784q18 -16 36 -16q19 0 30.5 12.5t11.5 31.5q0 18 -15 33l-84 85q-10 10 -18 13t-21 3q-17 0 -30.5 -12t-13.5 -31q0 -12 7 -24t18 -22zM62 56q0 -30 19.5 -49.5t47.5 -19.5t47.5 19.5t19.5 49.5v608q0 31 -19.5 50t-47.5 19t-47.5 -19t-19.5 -50v-608z" />
    <glyph glyph-name="Iacute" unicode="&#xcd;" horiz-adv-x="258" 
d="M81 845q-15 -15 -15 -33q0 -19 11.5 -31.5t30.5 -12.5q18 0 36 16l79 73q11 10 18 22t7 24q0 19 -13.5 31t-30.5 12q-13 0 -21 -3t-18 -13zM62 56q0 -30 19.5 -49.5t47.5 -19.5t47.5 19.5t19.5 49.5v608q0 31 -19.5 50t-47.5 19t-47.5 -19t-19.5 -50v-608z" />
    <glyph glyph-name="Icircumflex" unicode="&#xce;" horiz-adv-x="258" 
d="M13 840q-7 -10 -9.5 -16.5t-2.5 -14.5q0 -18 12 -29.5t32 -11.5q23 0 36 22l48 80l48 -80q14 -22 36 -22q20 0 32 11.5t12 29.5q0 8 -2.5 14.5t-9.5 16.5l-43 65q-16 24 -32.5 32.5t-40.5 8.5t-40.5 -8.5t-32.5 -32.5zM62 56q0 -30 19.5 -49.5t47.5 -19.5t47.5 19.5
t19.5 49.5v608q0 31 -19.5 50t-47.5 19t-47.5 -19t-19.5 -50v-608z" />
    <glyph glyph-name="Idieresis" unicode="&#xcf;" horiz-adv-x="258" 
d="M-31 845q0 -28 19.5 -47.5t47.5 -19.5t47.5 19.5t19.5 47.5t-19.5 47.5t-47.5 19.5t-47.5 -19.5t-19.5 -47.5zM155 845q0 -28 19.5 -47.5t47.5 -19.5t47.5 19.5t19.5 47.5t-19.5 47.5t-47.5 19.5t-47.5 -19.5t-19.5 -47.5zM62 56q0 -30 19.5 -49.5t47.5 -19.5t47.5 19.5
t19.5 49.5v608q0 31 -19.5 50t-47.5 19t-47.5 -19t-19.5 -50v-608z" />
    <glyph glyph-name="Eth" unicode="&#xd0;" horiz-adv-x="537" 
d="M190 614h66q60 0 80.5 -48t20.5 -171v-58q0 -133 -24.5 -182t-80.5 -49h-62v220h60q17 0 28 13t11 37q0 51 -39 51h-60v187zM56 72q0 -72 72 -72h169q98 0 149 76.5t51 235.5v93q0 165 -45.5 240t-148.5 75h-175q-72 0 -72 -72v-221h-34q-39 0 -39 -51q0 -24 11 -37
t28 -13h34v-254z" />
    <glyph glyph-name="Ntilde" unicode="&#xd1;" horiz-adv-x="574" 
d="M122 814q0 -18 12 -29t31 -11q9 0 16.5 4.5t17.5 12.5q20 17 33 17q4 0 17 -3t37 -8q27 -7 44.5 -11t24.5 -4q18 0 35.5 8t31.5 21.5t22 29.5t8 31q0 16 -11.5 26t-28.5 10q-14 0 -36 -17q-12 -9 -20 -13.5t-19 -4.5q-8 0 -35 9q-26 8 -44 12.5t-38 4.5q-16 0 -33.5 -7.5
t-32 -20.5t-23.5 -28t-9 -29zM56 56q0 -30 19.5 -49.5t47.5 -19.5t47.5 19.5t19.5 49.5v399h2l159 -400q16 -41 37 -54.5t63 -13.5q28 0 47.5 20t19.5 55v602q0 31 -19.5 50t-47.5 19t-47.5 -19t-19.5 -50v-393h-2l-159 394q-17 41 -37.5 54.5t-55.5 13.5t-54.5 -18.5
t-19.5 -50.5v-608z" />
    <glyph glyph-name="Ograve" unicode="&#xd2;" horiz-adv-x="520" 
d="M251 784q18 -16 36 -16q19 0 30.5 12.5t11.5 31.5q0 18 -15 33l-84 85q-10 10 -18 13t-21 3q-17 0 -30.5 -12t-13.5 -31q0 -12 7 -24t18 -22zM40 290q0 -98 16 -159.5t45.5 -93.5t68 -43t90.5 -11t90.5 11t68 43t45.5 93.5t16 159.5v152q0 95 -17.5 154.5t-48 90
t-68.5 40.5t-86 10t-86 -10t-68 -40.5t-48 -90t-18 -154.5v-152zM180 442q0 111 19 150t61 39t61 -39t19 -150v-152q0 -64 -5 -104.5t-14.5 -61t-24 -28t-36.5 -7.5t-36.5 7.5t-24 28t-14.5 61t-5 104.5v152z" />
    <glyph glyph-name="Oacute" unicode="&#xd3;" horiz-adv-x="520" 
d="M206 845q-15 -15 -15 -33q0 -19 11.5 -31.5t30.5 -12.5q18 0 36 16l79 73q11 10 18 22t7 24q0 19 -13.5 31t-30.5 12q-13 0 -21 -3t-18 -13zM40 290q0 -98 16 -159.5t45.5 -93.5t68 -43t90.5 -11t90.5 11t68 43t45.5 93.5t16 159.5v152q0 95 -17.5 154.5t-48 90
t-68.5 40.5t-86 10t-86 -10t-68 -40.5t-48 -90t-18 -154.5v-152zM180 442q0 111 19 150t61 39t61 -39t19 -150v-152q0 -64 -5 -104.5t-14.5 -61t-24 -28t-36.5 -7.5t-36.5 7.5t-24 28t-14.5 61t-5 104.5v152z" />
    <glyph glyph-name="Ocircumflex" unicode="&#xd4;" horiz-adv-x="520" 
d="M144 840q-7 -10 -9.5 -16.5t-2.5 -14.5q0 -18 12.5 -29.5t31.5 -11.5q23 0 36 22l48 80l48 -80q14 -22 36 -22q20 0 32 11.5t12 29.5q0 8 -2.5 14.5t-9.5 16.5l-43 65q-16 24 -32.5 32.5t-40.5 8.5t-40.5 -8.5t-32.5 -32.5zM40 290q0 -98 16 -159.5t45.5 -93.5t68 -43
t90.5 -11t90.5 11t68 43t45.5 93.5t16 159.5v152q0 95 -17.5 154.5t-48 90t-68.5 40.5t-86 10t-86 -10t-68 -40.5t-48 -90t-18 -154.5v-152zM180 442q0 111 19 150t61 39t61 -39t19 -150v-152q0 -64 -5 -104.5t-14.5 -61t-24 -28t-36.5 -7.5t-36.5 7.5t-24 28t-14.5 61
t-5 104.5v152z" />
    <glyph glyph-name="Otilde" unicode="&#xd5;" horiz-adv-x="520" 
d="M95 814q0 -18 12 -29t31 -11q9 0 16.5 4.5t17.5 12.5q20 17 33 17q4 0 17 -3t37 -8q27 -7 44.5 -11t24.5 -4q18 0 35.5 8t31.5 21.5t22 29.5t8 31q0 16 -11.5 26t-28.5 10q-14 0 -36 -17q-12 -9 -20 -13.5t-19 -4.5q-8 0 -35 9q-26 8 -44 12.5t-38 4.5q-16 0 -33.5 -7.5
t-32 -20.5t-23.5 -28t-9 -29zM40 290q0 -98 16 -159.5t45.5 -93.5t68 -43t90.5 -11t90.5 11t68 43t45.5 93.5t16 159.5v152q0 95 -17.5 154.5t-48 90t-68.5 40.5t-86 10t-86 -10t-68 -40.5t-48 -90t-18 -154.5v-152zM180 442q0 111 19 150t61 39t61 -39t19 -150v-152
q0 -64 -5 -104.5t-14.5 -61t-24 -28t-36.5 -7.5t-36.5 7.5t-24 28t-14.5 61t-5 104.5v152z" />
    <glyph glyph-name="Odieresis" unicode="&#xd6;" horiz-adv-x="520" 
d="M100 845q0 -28 19.5 -47.5t47.5 -19.5t47.5 19.5t19.5 47.5t-19.5 47.5t-47.5 19.5t-47.5 -19.5t-19.5 -47.5zM286 845q0 -28 19.5 -47.5t47.5 -19.5t47.5 19.5t19.5 47.5t-19.5 47.5t-47.5 19.5t-47.5 -19.5t-19.5 -47.5zM40 290q0 -98 16 -159.5t45.5 -93.5t68 -43
t90.5 -11t90.5 11t68 43t45.5 93.5t16 159.5v152q0 95 -17.5 154.5t-48 90t-68.5 40.5t-86 10t-86 -10t-68 -40.5t-48 -90t-18 -154.5v-152zM180 442q0 111 19 150t61 39t61 -39t19 -150v-152q0 -64 -5 -104.5t-14.5 -61t-24 -28t-36.5 -7.5t-36.5 7.5t-24 28t-14.5 61
t-5 104.5v152z" />
    <glyph glyph-name="multiply" unicode="&#xd7;" horiz-adv-x="600" 
d="M225 283l-138 -137q-25 -25 -25 -57q0 -16 14 -30t32 -14q29 0 55 26l137 137l137 -137q26 -26 55 -26q18 0 32 14t14 30q0 32 -25 57l-138 137l138 137q25 25 25 57q0 16 -14 30t-32 14q-29 0 -55 -26l-137 -137l-137 137q-26 26 -55 26q-18 0 -32 -14t-14 -30
q0 -32 25 -57z" />
    <glyph glyph-name="Oslash" unicode="&#xd8;" horiz-adv-x="520" 
d="M180 442q0 111 19 150t61 39q34 0 51.5 -22t23.5 -73l-153 -262h-2v168zM340 290q0 -64 -5 -104.5t-14.5 -61t-24 -28t-36.5 -7.5q-35 0 -51.5 20t-23.5 73l153 265h2v-157zM40 290q0 -66 8.5 -120.5t23.5 -83.5l-32 -55q-9 -16 -12 -23t-3 -13q0 -8 6.5 -14.5t16.5 -6.5
q19 0 40 38l14 25q27 -31 65 -42.5t93 -11.5q52 0 90.5 11t68 43t45.5 93.5t16 159.5v152q0 120 -32 193l35 60q12 19 12 29q0 9 -7 15.5t-17 6.5t-17 -6.5t-17 -24.5l-19 -32q-26 29 -65.5 41.5t-92.5 12.5q-48 0 -86 -10t-68 -40.5t-48 -90t-18 -154.5v-152z" />
    <glyph glyph-name="Ugrave" unicode="&#xd9;" horiz-adv-x="537" 
d="M260 784q18 -16 36 -16q19 0 30.5 12.5t11.5 31.5q0 18 -15 33l-84 85q-10 10 -18 13t-21 3q-17 0 -30.5 -12t-13.5 -31q0 -12 7 -24t18 -22zM51 191q0 -97 56 -152.5t162 -55.5t161.5 55.5t55.5 152.5v473q0 31 -19.5 50t-47.5 19t-47.5 -19t-19.5 -50v-460
q0 -57 -22 -86t-61 -29t-61.5 29t-22.5 86v460q0 31 -19.5 50t-47.5 19t-47.5 -19t-19.5 -50v-473z" />
    <glyph glyph-name="Uacute" unicode="&#xda;" horiz-adv-x="537" 
d="M215 845q-15 -15 -15 -33q0 -19 11.5 -31.5t30.5 -12.5q18 0 36 16l79 73q11 10 18 22t7 24q0 19 -13.5 31t-30.5 12q-13 0 -21 -3t-18 -13zM51 191q0 -97 56 -152.5t162 -55.5t161.5 55.5t55.5 152.5v473q0 31 -19.5 50t-47.5 19t-47.5 -19t-19.5 -50v-460
q0 -57 -22 -86t-61 -29t-61.5 29t-22.5 86v460q0 31 -19.5 50t-47.5 19t-47.5 -19t-19.5 -50v-473z" />
    <glyph glyph-name="Ucircumflex" unicode="&#xdb;" horiz-adv-x="537" 
d="M153 840q-7 -10 -9.5 -16.5t-2.5 -14.5q0 -18 12.5 -29.5t31.5 -11.5q23 0 36 22l48 80l48 -80q14 -22 36 -22q20 0 32 11.5t12 29.5q0 8 -2.5 14.5t-9.5 16.5l-43 65q-16 24 -32.5 32.5t-40.5 8.5t-40.5 -8.5t-32.5 -32.5zM51 191q0 -97 56 -152.5t162 -55.5t161.5 55.5
t55.5 152.5v473q0 31 -19.5 50t-47.5 19t-47.5 -19t-19.5 -50v-460q0 -57 -22 -86t-61 -29t-61.5 29t-22.5 86v460q0 31 -19.5 50t-47.5 19t-47.5 -19t-19.5 -50v-473z" />
    <glyph glyph-name="Udieresis" unicode="&#xdc;" horiz-adv-x="537" 
d="M109 845q0 -28 19.5 -47.5t47.5 -19.5t47.5 19.5t19.5 47.5t-19.5 47.5t-47.5 19.5t-47.5 -19.5t-19.5 -47.5zM295 845q0 -28 19.5 -47.5t47.5 -19.5t47.5 19.5t19.5 47.5t-19.5 47.5t-47.5 19.5t-47.5 -19.5t-19.5 -47.5zM51 191q0 -97 56 -152.5t162 -55.5t161.5 55.5
t55.5 152.5v473q0 31 -19.5 50t-47.5 19t-47.5 -19t-19.5 -50v-460q0 -57 -22 -86t-61 -29t-61.5 29t-22.5 86v460q0 31 -19.5 50t-47.5 19t-47.5 -19t-19.5 -50v-473z" />
    <glyph glyph-name="Yacute" unicode="&#xdd;" horiz-adv-x="481" 
d="M187 845q-15 -15 -15 -33q0 -19 11.5 -31.5t30.5 -12.5q18 0 36 16l79 73q11 10 18 22t7 24q0 19 -13.5 31t-30.5 12q-13 0 -21 -3t-18 -13zM174 56q0 -30 19.5 -49.5t47.5 -19.5t47.5 19.5t19.5 49.5v247l147 335q10 22 10 41q0 21 -18 37.5t-46 16.5q-25 0 -41 -10.5
t-28 -42.5l-91 -238l-86 228q-14 38 -28 50.5t-45 12.5q-28 0 -47 -15.5t-19 -45.5q0 -19 12 -47l146 -329v-240z" />
    <glyph glyph-name="Thorn" unicode="&#xde;" horiz-adv-x="500" 
d="M56 56q0 -30 19.5 -49.5t47.5 -19.5t47.5 19.5t19.5 49.5v134h116q84 0 127.5 60t43.5 151q0 105 -47.5 154t-134.5 49h-105v60q0 31 -19.5 50t-47.5 19t-47.5 -19t-19.5 -50v-608zM190 503h67q39 0 59.5 -26.5t20.5 -81.5q0 -49 -21.5 -76.5t-65.5 -27.5h-60v212z" />
    <glyph glyph-name="germandbls" unicode="&#xdf;" horiz-adv-x="481" 
d="M54 60q0 -36 16 -54.5t45 -18.5t45 18.5t16 54.5v494q0 78 60 78q30 0 41.5 -24.5t11.5 -59.5q0 -50 -35 -67q-20 -9 -28 -19.5t-8 -33.5q0 -20 8 -31t27 -18q29 -10 38.5 -40.5t9.5 -94.5q0 -78 -7.5 -107.5t-30.5 -37.5q-29 -10 -38 -21.5t-9 -32.5q0 -25 18.5 -38
t43.5 -13q51 0 81.5 22.5t45.5 60.5t19.5 84t4.5 107q0 70 -18.5 111.5t-64.5 54.5v2q37 15 54 49t17 82q0 78 -46 122t-130 44q-92 0 -139.5 -42t-47.5 -121v-510z" />
    <glyph glyph-name="agrave" unicode="&#xe0;" horiz-adv-x="444" 
d="M213 605q18 -16 36 -16q19 0 30.5 12.5t11.5 31.5q0 18 -15 33l-84 85q-10 10 -18 13t-21 3q-17 0 -30.5 -12t-13.5 -31q0 -12 7 -24t18 -22zM395 394q0 38 -6 65.5t-24.5 49t-55 33.5t-95.5 12q-73 0 -121.5 -38t-48.5 -106q0 -25 20 -37.5t44 -12.5t40 10.5t18 28.5
q4 34 17 49t43 15q22 0 34.5 -15.5t12.5 -38.5q0 -37 -39 -57l-109 -57q-48 -25 -67.5 -63t-19.5 -100q0 -73 34.5 -109t91.5 -36q36 0 65.5 16.5t45.5 51.5l2 1q0 -37 18 -53t46 -16q61 0 61 48q0 7 -3 27q-4 33 -4 54v278zM273 184q0 -44 -17.5 -72.5t-46.5 -28.5
q-20 0 -31.5 17t-11.5 47q0 35 12 55t52 48l43 30v-96z" />
    <glyph glyph-name="aacute" unicode="&#xe1;" horiz-adv-x="444" 
d="M168 666q-15 -15 -15 -33q0 -19 11.5 -31.5t30.5 -12.5q18 0 36 16l79 73q11 10 18 22t7 24q0 19 -13.5 31t-30.5 12q-13 0 -21 -3t-18 -13zM395 394q0 38 -6 65.5t-24.5 49t-55 33.5t-95.5 12q-73 0 -121.5 -38t-48.5 -106q0 -25 20 -37.5t44 -12.5t40 10.5t18 28.5
q4 34 17 49t43 15q22 0 34.5 -15.5t12.5 -38.5q0 -37 -39 -57l-109 -57q-48 -25 -67.5 -63t-19.5 -100q0 -73 34.5 -109t91.5 -36q36 0 65.5 16.5t45.5 51.5l2 1q0 -37 18 -53t46 -16q61 0 61 48q0 7 -3 27q-4 33 -4 54v278zM273 184q0 -44 -17.5 -72.5t-46.5 -28.5
q-20 0 -31.5 17t-11.5 47q0 35 12 55t52 48l43 30v-96z" />
    <glyph glyph-name="acircumflex" unicode="&#xe2;" horiz-adv-x="444" 
d="M106 661q-7 -10 -9.5 -16.5t-2.5 -14.5q0 -18 12.5 -29.5t31.5 -11.5q23 0 36 22l48 80l48 -80q14 -22 36 -22q20 0 32 11.5t12 29.5q0 8 -2.5 14.5t-9.5 16.5l-43 65q-16 24 -32.5 32.5t-40.5 8.5t-40.5 -8.5t-32.5 -32.5zM395 394q0 38 -6 65.5t-24.5 49t-55 33.5
t-95.5 12q-73 0 -121.5 -38t-48.5 -106q0 -25 20 -37.5t44 -12.5t40 10.5t18 28.5q4 34 17 49t43 15q22 0 34.5 -15.5t12.5 -38.5q0 -37 -39 -57l-109 -57q-48 -25 -67.5 -63t-19.5 -100q0 -73 34.5 -109t91.5 -36q36 0 65.5 16.5t45.5 51.5l2 1q0 -37 18 -53t46 -16
q61 0 61 48q0 7 -3 27q-4 33 -4 54v278zM273 184q0 -44 -17.5 -72.5t-46.5 -28.5q-20 0 -31.5 17t-11.5 47q0 35 12 55t52 48l43 30v-96z" />
    <glyph glyph-name="atilde" unicode="&#xe3;" horiz-adv-x="444" 
d="M57 635q0 -18 12 -29t31 -11q9 0 16.5 4.5t17.5 12.5q20 17 33 17q4 0 17 -3t37 -8q27 -7 44.5 -11t24.5 -4q18 0 35.5 8t31.5 21.5t22 29.5t8 31q0 16 -11.5 26t-28.5 10q-14 0 -36 -17q-12 -9 -20 -13.5t-19 -4.5q-8 0 -35 9q-26 8 -44 12.5t-38 4.5q-16 0 -33.5 -7.5
t-32 -20.5t-23.5 -28t-9 -29zM395 394q0 38 -6 65.5t-24.5 49t-55 33.5t-95.5 12q-73 0 -121.5 -38t-48.5 -106q0 -25 20 -37.5t44 -12.5t40 10.5t18 28.5q4 34 17 49t43 15q22 0 34.5 -15.5t12.5 -38.5q0 -37 -39 -57l-109 -57q-48 -25 -67.5 -63t-19.5 -100
q0 -73 34.5 -109t91.5 -36q36 0 65.5 16.5t45.5 51.5l2 1q0 -37 18 -53t46 -16q61 0 61 48q0 7 -3 27q-4 33 -4 54v278zM273 184q0 -44 -17.5 -72.5t-46.5 -28.5q-20 0 -31.5 17t-11.5 47q0 35 12 55t52 48l43 30v-96z" />
    <glyph glyph-name="adieresis" unicode="&#xe4;" horiz-adv-x="444" 
d="M62 666q0 -28 19.5 -47.5t47.5 -19.5t47.5 19.5t19.5 47.5t-19.5 47.5t-47.5 19.5t-47.5 -19.5t-19.5 -47.5zM248 666q0 -28 19.5 -47.5t47.5 -19.5t47.5 19.5t19.5 47.5t-19.5 47.5t-47.5 19.5t-47.5 -19.5t-19.5 -47.5zM395 394q0 38 -6 65.5t-24.5 49t-55 33.5
t-95.5 12q-73 0 -121.5 -38t-48.5 -106q0 -25 20 -37.5t44 -12.5t40 10.5t18 28.5q4 34 17 49t43 15q22 0 34.5 -15.5t12.5 -38.5q0 -37 -39 -57l-109 -57q-48 -25 -67.5 -63t-19.5 -100q0 -73 34.5 -109t91.5 -36q36 0 65.5 16.5t45.5 51.5l2 1q0 -37 18 -53t46 -16
q61 0 61 48q0 7 -3 27q-4 33 -4 54v278zM273 184q0 -44 -17.5 -72.5t-46.5 -28.5q-20 0 -31.5 17t-11.5 47q0 35 12 55t52 48l43 30v-96z" />
    <glyph glyph-name="aring" unicode="&#xe5;" horiz-adv-x="444" 
d="M126 695q0 -44 31 -75t75 -31t75 31t31 75t-31 75t-75 31t-75 -31t-31 -75zM184 695q0 20 14 34t34 14t34 -14t14 -34t-14 -34t-34 -14t-34 14t-14 34zM395 394q0 38 -6 65.5t-24.5 49t-55 33.5t-95.5 12q-73 0 -121.5 -38t-48.5 -106q0 -25 20 -37.5t44 -12.5t40 10.5
t18 28.5q4 34 17 49t43 15q22 0 34.5 -15.5t12.5 -38.5q0 -37 -39 -57l-109 -57q-48 -25 -67.5 -63t-19.5 -100q0 -73 34.5 -109t91.5 -36q36 0 65.5 16.5t45.5 51.5l2 1q0 -37 18 -53t46 -16q61 0 61 48q0 7 -3 27q-4 33 -4 54v278zM273 184q0 -44 -17.5 -72.5t-46.5 -28.5
q-20 0 -31.5 17t-11.5 47q0 35 12 55t52 48l43 30v-96z" />
    <glyph glyph-name="ae" unicode="&#xe6;" horiz-adv-x="648" 
d="M548 254q42 0 55 21.5t13 65.5q0 110 -38.5 161.5t-131.5 51.5q-29 0 -59 -10t-53 -30q-22 22 -53.5 31t-66.5 9q-73 0 -121.5 -38t-48.5 -106q0 -25 20 -37.5t44 -12.5t40 10.5t18 28.5q4 34 17 49t43 15q22 0 34.5 -15.5t12.5 -38.5q0 -37 -39 -57l-109 -57
q-48 -25 -67.5 -63t-19.5 -100q0 -73 34.5 -109t91.5 -36q39 0 73 17.5t58 53.5q24 -38 59 -54.5t92 -16.5q75 0 120.5 42t45.5 115q0 34 -16 47t-46 13q-28 0 -43.5 -14t-16.5 -51q-1 -22 -14.5 -39t-33.5 -17q-34 0 -44.5 29t-10.5 87v55h161zM209 83q-20 0 -31.5 17
t-11.5 47q0 35 12 55t52 48l43 30v-96q0 -44 -17.5 -72.5t-46.5 -28.5zM387 340v45q0 34 12.5 53.5t40.5 19.5q29 0 41.5 -19.5t12.5 -53.5v-45h-107z" />
    <glyph glyph-name="ccedilla" unicode="&#xe7;" horiz-adv-x="426" 
d="M162 -60q-11 -17 -11 -23t5.5 -11t13.5 -5q4 0 15 1q11 2 16 2q14 0 24 -9.5t10 -22.5q0 -18 -13 -27t-31 -9q-7 0 -23 5q-18 6 -28 6q-20 0 -20 -25q0 -17 22.5 -27.5t55.5 -10.5q50 0 84 25t34 65q0 36 -23.5 53t-63.5 17h-13l29 46q43 4 72 22t45 43t22 51t6 49
q0 33 -16.5 52t-43.5 19q-31 0 -45.5 -19t-16.5 -69q-1 -30 -13.5 -42.5t-32.5 -12.5q-29 0 -40.5 30t-11.5 98v120q0 66 9.5 96.5t42.5 30.5q21 0 33.5 -13.5t12.5 -38.5q0 -37 15.5 -53t46.5 -16q27 0 43.5 17.5t16.5 51.5q0 22 -7.5 46.5t-26.5 48t-52.5 38.5t-82.5 15
q-59 0 -95 -17.5t-54.5 -48.5t-24 -71.5t-5.5 -96.5v-99q0 -53 5 -91t20 -68.5t46 -49.5t80 -23z" />
    <glyph glyph-name="egrave" unicode="&#xe8;" horiz-adv-x="426" 
d="M210 605q18 -16 36 -16q19 0 30.5 12.5t11.5 31.5q0 18 -15 33l-84 85q-10 10 -18 13t-21 3q-17 0 -30.5 -12t-13.5 -31q0 -12 7 -24t18 -22zM166 340v45q0 34 12.5 53.5t40.5 19.5t40.5 -19.5t12.5 -53.5v-45h-106zM38 214q0 -59 6.5 -98.5t25.5 -68.5t56.5 -44.5
t97.5 -15.5q75 0 120.5 42t45.5 115q0 34 -16 47t-46 13q-28 0 -43.5 -14t-16.5 -51q-1 -22 -14.5 -39t-32.5 -17q-34 0 -44.5 29t-10.5 87v55h160q42 0 55 21.5t13 65.5q0 110 -38.5 161.5t-131.5 51.5q-60 0 -97.5 -15.5t-56.5 -44.5t-25.5 -68.5t-6.5 -98.5v-113z" />
    <glyph glyph-name="eacute" unicode="&#xe9;" horiz-adv-x="426" 
d="M165 666q-15 -15 -15 -33q0 -19 11.5 -31.5t30.5 -12.5q18 0 36 16l79 73q11 10 18 22t7 24q0 19 -13.5 31t-30.5 12q-13 0 -21 -3t-18 -13zM166 340v45q0 34 12.5 53.5t40.5 19.5t40.5 -19.5t12.5 -53.5v-45h-106zM38 214q0 -59 6.5 -98.5t25.5 -68.5t56.5 -44.5
t97.5 -15.5q75 0 120.5 42t45.5 115q0 34 -16 47t-46 13q-28 0 -43.5 -14t-16.5 -51q-1 -22 -14.5 -39t-32.5 -17q-34 0 -44.5 29t-10.5 87v55h160q42 0 55 21.5t13 65.5q0 110 -38.5 161.5t-131.5 51.5q-60 0 -97.5 -15.5t-56.5 -44.5t-25.5 -68.5t-6.5 -98.5v-113z" />
    <glyph glyph-name="ecircumflex" unicode="&#xea;" horiz-adv-x="426" 
d="M103 661q-7 -10 -9.5 -16.5t-2.5 -14.5q0 -18 12.5 -29.5t31.5 -11.5q23 0 36 22l48 80l48 -80q14 -22 36 -22q20 0 32 11.5t12 29.5q0 8 -2.5 14.5t-9.5 16.5l-43 65q-16 24 -32.5 32.5t-40.5 8.5t-40.5 -8.5t-32.5 -32.5zM166 340v45q0 34 12.5 53.5t40.5 19.5
t40.5 -19.5t12.5 -53.5v-45h-106zM38 214q0 -59 6.5 -98.5t25.5 -68.5t56.5 -44.5t97.5 -15.5q75 0 120.5 42t45.5 115q0 34 -16 47t-46 13q-28 0 -43.5 -14t-16.5 -51q-1 -22 -14.5 -39t-32.5 -17q-34 0 -44.5 29t-10.5 87v55h160q42 0 55 21.5t13 65.5q0 110 -38.5 161.5
t-131.5 51.5q-60 0 -97.5 -15.5t-56.5 -44.5t-25.5 -68.5t-6.5 -98.5v-113z" />
    <glyph glyph-name="edieresis" unicode="&#xeb;" horiz-adv-x="426" 
d="M59 666q0 -28 19.5 -47.5t47.5 -19.5t47.5 19.5t19.5 47.5t-19.5 47.5t-47.5 19.5t-47.5 -19.5t-19.5 -47.5zM245 666q0 -28 19.5 -47.5t47.5 -19.5t47.5 19.5t19.5 47.5t-19.5 47.5t-47.5 19.5t-47.5 -19.5t-19.5 -47.5zM166 340v45q0 34 12.5 53.5t40.5 19.5
t40.5 -19.5t12.5 -53.5v-45h-106zM38 214q0 -59 6.5 -98.5t25.5 -68.5t56.5 -44.5t97.5 -15.5q75 0 120.5 42t45.5 115q0 34 -16 47t-46 13q-28 0 -43.5 -14t-16.5 -51q-1 -22 -14.5 -39t-32.5 -17q-34 0 -44.5 29t-10.5 87v55h160q42 0 55 21.5t13 65.5q0 110 -38.5 161.5
t-131.5 51.5q-60 0 -97.5 -15.5t-56.5 -44.5t-25.5 -68.5t-6.5 -98.5v-113z" />
    <glyph glyph-name="igrave" unicode="&#xec;" 
d="M111 605q18 -16 36 -16q19 0 30.5 12.5t11.5 31.5q0 18 -15 33l-84 85q-10 10 -18 13t-21 3q-17 0 -30.5 -12t-13.5 -31q0 -12 7 -24t18 -22zM59 60q0 -36 16 -54.5t45 -18.5t45 18.5t16 54.5v421q0 36 -16 54.5t-45 18.5t-45 -18.5t-16 -54.5v-421z" />
    <glyph glyph-name="iacute" unicode="&#xed;" 
d="M66 666q-15 -15 -15 -33q0 -19 11.5 -31.5t30.5 -12.5q18 0 36 16l79 73q11 10 18 22t7 24q0 19 -13.5 31t-30.5 12q-13 0 -21 -3t-18 -13zM59 60q0 -36 16 -54.5t45 -18.5t45 18.5t16 54.5v421q0 36 -16 54.5t-45 18.5t-45 -18.5t-16 -54.5v-421z" />
    <glyph glyph-name="icircumflex" unicode="&#xee;" 
d="M4 661q-7 -10 -9.5 -16.5t-2.5 -14.5q0 -18 12 -29.5t32 -11.5q22 0 36 22l48 80l48 -80q14 -22 36 -22q20 0 32 11.5t12 29.5q0 8 -2.5 14.5t-9.5 16.5l-43 65q-16 24 -32.5 32.5t-40.5 8.5t-40.5 -8.5t-32.5 -32.5zM59 60q0 -36 16 -54.5t45 -18.5t45 18.5t16 54.5v421
q0 36 -16 54.5t-45 18.5t-45 -18.5t-16 -54.5v-421z" />
    <glyph glyph-name="idieresis" unicode="&#xef;" 
d="M-40 666q0 -28 19.5 -47.5t47.5 -19.5t47.5 19.5t19.5 47.5t-19.5 47.5t-47.5 19.5t-47.5 -19.5t-19.5 -47.5zM146 666q0 -28 19.5 -47.5t47.5 -19.5t47.5 19.5t19.5 47.5t-19.5 47.5t-47.5 19.5t-47.5 -19.5t-19.5 -47.5zM59 60q0 -36 16 -54.5t45 -18.5t45 18.5
t16 54.5v421q0 36 -16 54.5t-45 18.5t-45 -18.5t-16 -54.5v-421z" />
    <glyph glyph-name="eth" unicode="&#xf0;" horiz-adv-x="444" 
d="M166 295q0 66 11.5 88.5t44.5 22.5t44.5 -22.5t11.5 -88.5v-111q0 -66 -11.5 -88.5t-44.5 -22.5t-44.5 22.5t-11.5 88.5v111zM38 174q0 -41 8.5 -74.5t29.5 -59t57 -39.5t89 -14t89 14t57 39.5t29.5 59t8.5 74.5v205q0 71 -21.5 141t-59.5 121l37 20q18 9 26 19.5t8 26.5
q0 13 -10 21.5t-25 8.5q-13 0 -22.5 -3t-20.5 -9q-3 -2 -4 -2l-42 -22q-31 28 -62 42.5t-69 14.5q-21 0 -34 -10t-13 -31q0 -14 9.5 -21.5t31.5 -16.5q31 -14 45 -26l-38 -19q-18 -9 -26 -19.5t-8 -26.5q0 -13 10 -21.5t25 -8.5q13 0 22.5 3t20.5 9q3 2 4 2l47 25
q19 -34 30 -66.5t16 -71.5l-2 -2q-26 35 -71 35q-49 0 -82.5 -14t-53 -39t-28 -59t-8.5 -75v-131z" />
    <glyph glyph-name="ntilde" unicode="&#xf1;" horiz-adv-x="463" 
d="M73 635q0 -18 12 -29t31 -11q9 0 16.5 4.5t17.5 12.5q20 17 33 17q4 0 17 -3t37 -8q27 -7 44.5 -11t24.5 -4q18 0 35.5 8t31.5 21.5t22 29.5t8 31q0 16 -11.5 26t-28.5 10q-14 0 -36 -17q-12 -9 -20 -13.5t-19 -4.5q-8 0 -35 9q-26 8 -44 12.5t-38 4.5q-16 0 -33.5 -7.5
t-32 -20.5t-23.5 -28t-9 -29zM54 60q0 -36 16 -54.5t45 -18.5t45 18.5t16 54.5v291q0 49 17 73t47 24q21 0 34 -14.5t13 -42.5v-331q0 -36 16 -54.5t45 -18.5t45 18.5t16 54.5v360q0 67 -32 100.5t-85 33.5q-37 0 -68.5 -18t-45.5 -52h-2q0 70 -61 70q-29 0 -45 -18.5
t-16 -54.5v-421z" />
    <glyph glyph-name="ograve" unicode="&#xf2;" horiz-adv-x="444" 
d="M213 605q18 -16 36 -16q19 0 30.5 12.5t11.5 31.5q0 18 -15 33l-84 85q-10 10 -18 13t-21 3q-17 0 -30.5 -12t-13.5 -31q0 -12 7 -24t18 -22zM166 336q0 70 13.5 96t42.5 26t42.5 -26t13.5 -96v-129q0 -73 -12.5 -98.5t-43.5 -25.5t-43.5 25.5t-12.5 98.5v129zM38 197
q0 -46 8.5 -83.5t29.5 -66t57 -44.5t89 -16t89 16t57 44.5t29.5 66t8.5 83.5v147q0 46 -8.5 83.5t-29.5 66t-57 44.5t-89 16t-89 -16t-57 -44.5t-29.5 -66t-8.5 -83.5v-147z" />
    <glyph glyph-name="oacute" unicode="&#xf3;" horiz-adv-x="444" 
d="M168 666q-15 -15 -15 -33q0 -19 11.5 -31.5t30.5 -12.5q18 0 36 16l79 73q11 10 18 22t7 24q0 19 -13.5 31t-30.5 12q-13 0 -21 -3t-18 -13zM166 336q0 70 13.5 96t42.5 26t42.5 -26t13.5 -96v-129q0 -73 -12.5 -98.5t-43.5 -25.5t-43.5 25.5t-12.5 98.5v129zM38 197
q0 -46 8.5 -83.5t29.5 -66t57 -44.5t89 -16t89 16t57 44.5t29.5 66t8.5 83.5v147q0 46 -8.5 83.5t-29.5 66t-57 44.5t-89 16t-89 -16t-57 -44.5t-29.5 -66t-8.5 -83.5v-147z" />
    <glyph glyph-name="ocircumflex" unicode="&#xf4;" horiz-adv-x="444" 
d="M106 661q-7 -10 -9.5 -16.5t-2.5 -14.5q0 -18 12.5 -29.5t31.5 -11.5q23 0 36 22l48 80l48 -80q14 -22 36 -22q20 0 32 11.5t12 29.5q0 8 -2.5 14.5t-9.5 16.5l-43 65q-16 24 -32.5 32.5t-40.5 8.5t-40.5 -8.5t-32.5 -32.5zM166 336q0 70 13.5 96t42.5 26t42.5 -26
t13.5 -96v-129q0 -73 -12.5 -98.5t-43.5 -25.5t-43.5 25.5t-12.5 98.5v129zM38 197q0 -46 8.5 -83.5t29.5 -66t57 -44.5t89 -16t89 16t57 44.5t29.5 66t8.5 83.5v147q0 46 -8.5 83.5t-29.5 66t-57 44.5t-89 16t-89 -16t-57 -44.5t-29.5 -66t-8.5 -83.5v-147z" />
    <glyph glyph-name="otilde" unicode="&#xf5;" horiz-adv-x="444" 
d="M57 635q0 -18 12 -29t31 -11q9 0 16.5 4.5t17.5 12.5q20 17 33 17q4 0 17 -3t37 -8q27 -7 44.5 -11t24.5 -4q18 0 35.5 8t31.5 21.5t22 29.5t8 31q0 16 -11.5 26t-28.5 10q-14 0 -36 -17q-12 -9 -20 -13.5t-19 -4.5q-8 0 -35 9q-26 8 -44 12.5t-38 4.5q-16 0 -33.5 -7.5
t-32 -20.5t-23.5 -28t-9 -29zM166 336q0 70 13.5 96t42.5 26t42.5 -26t13.5 -96v-129q0 -73 -12.5 -98.5t-43.5 -25.5t-43.5 25.5t-12.5 98.5v129zM38 197q0 -46 8.5 -83.5t29.5 -66t57 -44.5t89 -16t89 16t57 44.5t29.5 66t8.5 83.5v147q0 46 -8.5 83.5t-29.5 66t-57 44.5
t-89 16t-89 -16t-57 -44.5t-29.5 -66t-8.5 -83.5v-147z" />
    <glyph glyph-name="odieresis" unicode="&#xf6;" horiz-adv-x="444" 
d="M62 666q0 -28 19.5 -47.5t47.5 -19.5t47.5 19.5t19.5 47.5t-19.5 47.5t-47.5 19.5t-47.5 -19.5t-19.5 -47.5zM248 666q0 -28 19.5 -47.5t47.5 -19.5t47.5 19.5t19.5 47.5t-19.5 47.5t-47.5 19.5t-47.5 -19.5t-19.5 -47.5zM166 336q0 70 13.5 96t42.5 26t42.5 -26
t13.5 -96v-129q0 -73 -12.5 -98.5t-43.5 -25.5t-43.5 25.5t-12.5 98.5v129zM38 197q0 -46 8.5 -83.5t29.5 -66t57 -44.5t89 -16t89 16t57 44.5t29.5 66t8.5 83.5v147q0 46 -8.5 83.5t-29.5 66t-57 44.5t-89 16t-89 -16t-57 -44.5t-29.5 -66t-8.5 -83.5v-147z" />
    <glyph glyph-name="divide" unicode="&#xf7;" horiz-adv-x="600" 
d="M87 336q-31 0 -50.5 -15.5t-19.5 -37.5t19.5 -37.5t50.5 -15.5h426q31 0 50.5 15.5t19.5 37.5t-19.5 37.5t-50.5 15.5h-426zM224 495q0 -32 22 -54t54 -22t54 22t22 54t-22 54t-54 22t-54 -22t-22 -54zM224 71q0 -32 22 -54t54 -22t54 22t22 54t-22 54t-54 22t-54 -22
t-22 -54z" />
    <glyph glyph-name="oslash" unicode="&#xf8;" horiz-adv-x="444" 
d="M168 222h-2v114q0 70 13.5 96t42.5 26q21 0 33.5 -13t18.5 -46zM44 21q-6 -9 -8 -15t-2 -12q0 -8 6.5 -13.5t14.5 -5.5q12 0 25 20l18 30q43 -38 124 -38q53 0 89 16t57 44.5t29.5 66t8.5 83.5v147q0 41 -7 76t-23 60l24 40q10 17 10 27q0 7 -6 12.5t-12 5.5
q-17 0 -28 -18l-18 -30q-45 37 -124 37q-53 0 -89 -16t-57 -44.5t-29.5 -66t-8.5 -83.5v-147q0 -41 7 -75.5t23 -60.5zM276 320h2v-113q0 -73 -12.5 -98.5t-43.5 -25.5q-23 0 -35 13t-17 46z" />
    <glyph glyph-name="ugrave" unicode="&#xf9;" horiz-adv-x="463" 
d="M229 605q18 -16 36 -16q19 0 30.5 12.5t11.5 31.5q0 18 -15 33l-84 85q-10 10 -18 13t-21 3q-17 0 -30.5 -12t-13.5 -31q0 -12 7 -24t18 -22zM54 121q0 -67 32 -100.5t85 -33.5q37 0 68.5 18t45.5 52h2q0 -70 61 -70q29 0 45 18.5t16 54.5v421q0 36 -16 54.5t-45 18.5
t-45 -18.5t-16 -54.5v-291q0 -97 -64 -97q-47 0 -47 57v331q0 36 -16 54.5t-45 18.5t-45 -18.5t-16 -54.5v-360z" />
    <glyph glyph-name="uacute" unicode="&#xfa;" horiz-adv-x="463" 
d="M184 666q-15 -15 -15 -33q0 -19 11.5 -31.5t30.5 -12.5q18 0 36 16l79 73q11 10 18 22t7 24q0 19 -13.5 31t-30.5 12q-13 0 -21 -3t-18 -13zM54 121q0 -67 32 -100.5t85 -33.5q37 0 68.5 18t45.5 52h2q0 -70 61 -70q29 0 45 18.5t16 54.5v421q0 36 -16 54.5t-45 18.5
t-45 -18.5t-16 -54.5v-291q0 -97 -64 -97q-47 0 -47 57v331q0 36 -16 54.5t-45 18.5t-45 -18.5t-16 -54.5v-360z" />
    <glyph glyph-name="ucircumflex" unicode="&#xfb;" horiz-adv-x="463" 
d="M122 661q-7 -10 -9.5 -16.5t-2.5 -14.5q0 -18 12.5 -29.5t31.5 -11.5q23 0 36 22l48 80l48 -80q14 -22 36 -22q20 0 32 11.5t12 29.5q0 8 -2.5 14.5t-9.5 16.5l-43 65q-16 24 -32.5 32.5t-40.5 8.5t-40.5 -8.5t-32.5 -32.5zM54 121q0 -67 32 -100.5t85 -33.5
q37 0 68.5 18t45.5 52h2q0 -70 61 -70q29 0 45 18.5t16 54.5v421q0 36 -16 54.5t-45 18.5t-45 -18.5t-16 -54.5v-291q0 -97 -64 -97q-47 0 -47 57v331q0 36 -16 54.5t-45 18.5t-45 -18.5t-16 -54.5v-360z" />
    <glyph glyph-name="udieresis" unicode="&#xfc;" horiz-adv-x="463" 
d="M78 666q0 -28 19.5 -47.5t47.5 -19.5t47.5 19.5t19.5 47.5t-19.5 47.5t-47.5 19.5t-47.5 -19.5t-19.5 -47.5zM264 666q0 -28 19.5 -47.5t47.5 -19.5t47.5 19.5t19.5 47.5t-19.5 47.5t-47.5 19.5t-47.5 -19.5t-19.5 -47.5zM54 121q0 -67 32 -100.5t85 -33.5q37 0 68.5 18
t45.5 52h2q0 -70 61 -70q29 0 45 18.5t16 54.5v421q0 36 -16 54.5t-45 18.5t-45 -18.5t-16 -54.5v-291q0 -97 -64 -97q-47 0 -47 57v331q0 36 -16 54.5t-45 18.5t-45 -18.5t-16 -54.5v-360z" />
    <glyph glyph-name="yacute" unicode="&#xfd;" horiz-adv-x="426" 
d="M159 666q-15 -15 -15 -33q0 -19 11.5 -31.5t30.5 -12.5q18 0 36 16l79 73q11 10 18 22t7 24q0 19 -13.5 31t-30.5 12q-13 0 -21 -3t-18 -13zM146 -44q4 -15 4 -30q0 -20 -9 -26t-29 -8h-1q-28 -3 -38 -14.5t-10 -31.5q0 -23 13 -38t44 -15q40 0 65 6t41 20.5t26.5 39
t20.5 67.5l127 535q7 28 7 39q0 25 -17 39.5t-44 14.5q-31 0 -45.5 -17t-20.5 -50l-60 -357h-2l-71 377q-4 24 -21 35.5t-42 11.5q-30 0 -47.5 -15.5t-17.5 -41.5q0 -6 4 -24q1 -5 1 -8z" />
    <glyph glyph-name="thorn" unicode="&#xfe;" horiz-adv-x="463" 
d="M181 322q0 74 17 102.5t43 28.5q31 0 41.5 -31t10.5 -121v-76q0 -75 -9.5 -108.5t-41.5 -33.5q-34 0 -47.5 34.5t-13.5 97.5v107zM59 -134q0 -36 16 -54.5t45 -18.5t45 18.5t16 54.5v184l2 -2q16 -30 44.5 -45.5t63.5 -15.5q40 0 65.5 16.5t39.5 45.5t19.5 66t5.5 83v145
q0 47 -5 83.5t-19.5 65.5t-40 45.5t-65.5 16.5q-33 0 -63 -19.5t-45 -53.5h-2v179q0 36 -16 54.5t-45 18.5t-45 -18.5t-16 -54.5v-794z" />
    <glyph glyph-name="ydieresis" unicode="&#xff;" horiz-adv-x="426" 
d="M53 666q0 -28 19.5 -47.5t47.5 -19.5t47.5 19.5t19.5 47.5t-19.5 47.5t-47.5 19.5t-47.5 -19.5t-19.5 -47.5zM239 666q0 -28 19.5 -47.5t47.5 -19.5t47.5 19.5t19.5 47.5t-19.5 47.5t-47.5 19.5t-47.5 -19.5t-19.5 -47.5zM146 -44q4 -15 4 -30q0 -20 -9 -26t-29 -8h-1
q-28 -3 -38 -14.5t-10 -31.5q0 -23 13 -38t44 -15q40 0 65 6t41 20.5t26.5 39t20.5 67.5l127 535q7 28 7 39q0 25 -17 39.5t-44 14.5q-31 0 -45.5 -17t-20.5 -50l-60 -357h-2l-71 377q-4 24 -21 35.5t-42 11.5q-30 0 -47.5 -15.5t-17.5 -41.5q0 -6 4 -24q1 -5 1 -8z" />
    </font>
</defs>
</svg>
